<svg id="Capa_1" enable-background="new 0 0 512 512" height="512" viewBox="0 0 512 512" width="512" xmlns="http://www.w3.org/2000/svg"><path d="m437.02 74.98c-48.353-48.351-112.64-74.98-181.02-74.98s-132.667 26.629-181.02 74.98c-48.351 48.353-74.98 112.64-74.98 181.02s26.629 132.667 74.98 181.02c48.353 48.351 112.64 74.98 181.02 74.98s132.667-26.629 181.02-74.98c48.351-48.353 74.98-112.64 74.98-181.02s-26.629-132.667-74.98-181.02zm44.47 166.02h-73.513c-3.024-30.871-15.275-59.075-33.956-81.808l51.959-51.959c31.771 36.255 52.148 82.722 55.51 133.767zm-102.776 15c0 67.665-55.049 122.714-122.714 122.714s-122.714-55.049-122.714-122.714 55.049-122.714 122.714-122.714c14.886 0 29.159 2.667 42.372 7.543-7.518 12.446-14.236 25.695-20.088 39.633-23.226-6.141-49.025-.141-67.202 18.035-17.285 17.285-17.285 41.134-17.285 62.174 0 16.694 0 32.462-8.499 40.961l-14.339 14.34 17.909 9.514c1.625.863 16.523 8.44 38.769 8.593.218.002.436.003.655.003 20.386 0 50.835-6.502 81.354-37.021 17.033-17.033 23.385-40.76 19.065-62.79 14.893-6.111 29.018-13.206 42.243-21.211 5.012 13.371 7.76 27.84 7.76 42.94zm-219.522 118.021c22.733 18.681 50.937 30.932 81.808 33.956v73.513c-51.045-3.362-97.511-23.739-133.767-55.51zm111.808 33.956c30.871-3.023 59.075-15.275 81.808-33.956l51.959 51.959c-36.256 31.771-82.723 52.148-133.767 55.51zm38.646-209.48c-1.487-1.487-3.033-2.877-4.616-4.201 5.765-14.053 12.476-27.322 20.059-39.658 12.489 8.539 23.323 19.325 31.923 31.769-12.492 7.663-26.12 14.544-40.305 20.35-2.105-2.89-4.455-5.654-7.061-8.26zm-21.212 77.351c-27.487 27.486-53.642 29.842-69.661 27.609 5.024-13.678 5.024-28.849 5.024-42.786 0-16.694 0-32.462 8.498-40.961 15.478-15.477 40.661-15.477 56.138 0 15.477 15.478 15.477 40.661.001 56.138zm64.374-137.869c-22.733-18.681-50.937-30.932-81.808-33.956v-73.513c51.045 3.362 97.511 23.739 133.767 55.51zm-111.808-33.956c-30.871 3.023-59.075 15.275-81.808 33.956l-51.959-51.959c36.256-31.771 82.722-52.148 133.767-55.51zm-154.98 3.209 51.959 51.959c-18.681 22.733-30.933 50.937-33.956 81.808h-73.513c3.362-51.044 23.739-97.511 55.51-133.767zm-55.51 163.768h73.513c3.024 30.871 15.275 59.075 33.956 81.808l-51.959 51.96c-31.771-36.256-52.148-82.723-55.51-133.768zm395.47 133.768-51.959-51.959c18.681-22.733 30.933-50.937 33.956-81.808h73.513c-3.362 51.044-23.739 97.511-55.51 133.767z"/></svg>