<svg id="Layer_1_1_" enable-background="new 0 0 64 64" height="512" viewBox="0 0 64 64" width="512" xmlns="http://www.w3.org/2000/svg"><path d="m32.604 2.203c-.357-.271-.852-.271-1.209 0l-29 22c-.249.19-.395.484-.395.797v36c0 .552.447 1 1 1h58c.553 0 1-.448 1-1v-36c0-.313-.146-.607-.396-.797zm-19.604 23.797v23.586l-9 9v-32.586zm36 23h-9v-1.184c1.161-.414 2-1.514 2-2.816 0-1.583-1.236-2.87-2.792-2.979l6.539-7.356c.279-.314.332-.768.134-1.138s-.602-.577-1.022-.517l-2.591.37c-1.814.259-3.449 1.099-4.718 2.331.649-3.177.819-6.447.456-9.716l-.013-.11c-.048-.422-.358-.768-.772-.861-.418-.091-.844.085-1.068.445l-.396.634c-1.267 2.028-2.277 4.185-3.046 6.422-.297-1.737-.799-3.439-1.516-5.052l-1.279-2.879c-.168-.376-.562-.606-.962-.593-.412.02-.771.291-.9.683l-.858 2.575c-.878 2.634-1.215 5.429-1.029 8.19-1.226-1.086-2.75-1.829-4.432-2.069l-2.591-.37c-.419-.059-.824.147-1.022.517s-.146.824.134 1.138l6.539 7.356c-1.559.109-2.795 1.396-2.795 2.979 0 1.302.839 2.402 2 2.816v1.184h-9v-23.51l17-13.222 17 13.222zm-12.449-7h-.108l.93-2.479c.822-2.194 2.757-3.773 5.064-4.144zm-3.189 0h-.342c.103-4.406 1.183-8.715 3.179-12.624.013 4.36-.956 8.66-2.837 12.624zm-2.792-1.678-.373 1.678h-.477l-.63-1.891c-1.313-3.94-1.313-8.279-.001-12.218l.043-.128.232.523c1.669 3.751 2.098 8.026 1.206 12.036zm-3.013 1.678h-.108l-5.887-6.623c2.308.371 4.242 1.95 5.064 4.144zm11.443 2c.552 0 1 .449 1 1s-.448 1-1 1h-14c-.552 0-1-.449-1-1s.448-1 1-1zm-13 4h12v7c0 .551-.448 1-1 1h-10c-.552 0-1-.449-1-1zm-11.586 3h9.586v4c0 1.654 1.346 3 3 3h10c1.654 0 3-1.346 3-3v-4h9.586l9 9h-53.172zm36.586-1.414v-23.586h9v32.586zm-19-45.331 26.027 19.745h-7.684l-17.729-13.79c-.361-.28-.867-.28-1.229 0l-17.728 13.79h-7.684z"/></svg>