<?xml version="1.0"?>
<svg xmlns="http://www.w3.org/2000/svg" id="Cabinet" viewBox="0 0 64 64" width="512" height="512"><path d="M52,2H12a1,1,0,0,0-1,1V55a1,1,0,0,0,1,1h1v5a1,1,0,0,0,1,1h4a1,1,0,0,0,.99-.84L19.85,56h24.3l.86,5.16A1,1,0,0,0,46,62h4a1,1,0,0,0,1-1V56h1a1,1,0,0,0,1-1V3A1,1,0,0,0,52,2ZM17.15,60H15V56h2.82ZM31,54H13V38H31ZM19,36V24h1V36Zm3,0V24h1V36Zm3,0V24h1V36Zm3,0V28.93L30.57,36Zm.49-11.56.94-.34,4.11,11.28-.94.34ZM49,60H46.85l-.67-4H49Zm2-6H33V38H51Zm0-18H35.81a.947.947,0,0,0-.05-.37L30.97,22.48a.993.993,0,0,0-1.28-.6l-1.82.66A.974.974,0,0,0,27,22H18a1,1,0,0,0-1,1V36H13V21H51ZM20,17H32v2H20Zm-3-2V13H29v2Zm20,4V7h2V19Zm4,0V7h2V19Zm4,0V7h2V19Zm6,0H49V7h2ZM51,5H36a1,1,0,0,0-1,1V19H34V16a1,1,0,0,0-1-1H31V12a1,1,0,0,0-1-1H16a1,1,0,0,0-1,1v4a1,1,0,0,0,1,1h2v2H13V4H51Z"/><circle cx="27" cy="42" r="2"/><circle cx="37" cy="42" r="2"/></svg>
