<?xml version="1.0"?>
<svg xmlns="http://www.w3.org/2000/svg" viewBox="0 0 512 512" width="512" height="512"><g id="Out_line" data-name="Out line"><path d="M184,176a72.08124,72.08124,0,0,0-72,72v16a7.99977,7.99977,0,0,0,8,8h64a7.99977,7.99977,0,0,0,8-8V184A7.99977,7.99977,0,0,0,184,176Zm-8,80H128v-8a56.08767,56.08767,0,0,1,48-55.43018Z"/><path d="M248,176a7.99977,7.99977,0,0,0-8,8v80a7.99977,7.99977,0,0,0,8,8h64a7.99977,7.99977,0,0,0,8-8V248A72.08124,72.08124,0,0,0,248,176Zm56,80H256V192.56982A56.08767,56.08767,0,0,1,304,248Z"/><path d="M184,288H120a7.99977,7.99977,0,0,0-8,8v96a7.99977,7.99977,0,0,0,8,8h64a7.99977,7.99977,0,0,0,8-8V296A7.99977,7.99977,0,0,0,184,288Zm-8,96H128V304h48Z"/><path d="M312,288H248a7.99977,7.99977,0,0,0-8,8v96a7.99977,7.99977,0,0,0,8,8h64a7.99977,7.99977,0,0,0,8-8V296A7.99977,7.99977,0,0,0,312,288Zm-8,96H256V304h48Z"/><circle cx="152" cy="88" r="8"/><circle cx="280" cy="88" r="8"/><path d="M493.625,449.98a7.80873,7.80873,0,0,0-5.71045-2.313A23.66752,23.66752,0,0,1,464,424V64h8a24,24,0,0,0,0-48H40a24,24,0,0,0,0,48h8V424a24.02687,24.02687,0,0,1-24,24,7.99977,7.99977,0,0,0-8,8v32a7.99977,7.99977,0,0,0,8,8H488a7.99955,7.99955,0,0,0,8-8.00049l-.002-32.33349A7.99866,7.99866,0,0,0,493.625,449.98ZM448,416H384V64h64ZM480,40a8.00917,8.00917,0,0,1-8,8H398.6239a23.94217,23.94217,0,0,0,0-16H472A8.00917,8.00917,0,0,1,480,40ZM32,40a8.00917,8.00917,0,0,1,8-8H376a8,8,0,0,1,0,16H40A8.00917,8.00917,0,0,1,32,40ZM96,64H208v48H96Zm128,0H336v48H224ZM80,64v56a7.99977,7.99977,0,0,0,8,8H344a7.99977,7.99977,0,0,0,8-8V64h16V416H352V152a7.99977,7.99977,0,0,0-8-8H88a7.99977,7.99977,0,0,0-8,8V416H64V64ZM96,416V160H208V416ZM224,160H336V416H224ZM400,480H32V463.19629A40.12649,40.12649,0,0,0,63.19629,432H368.80371A40.12649,40.12649,0,0,0,400,463.19629Zm16,0V456a7.99977,7.99977,0,0,0-8-8,24.03771,24.03771,0,0,1-22.6239-16h63.42517a39.19149,39.19149,0,0,0,7.28589,16H432v16h48v16Z"/><rect x="72" y="448" width="288" height="16"/></g></svg>
