<?xml version="1.0" encoding="iso-8859-1"?>
<!-- Generator: Adobe Illustrator 19.0.0, SVG Export Plug-In . SVG Version: 6.00 Build 0)  -->
<svg version="1.1" id="Capa_1" xmlns="http://www.w3.org/2000/svg" xmlns:xlink="http://www.w3.org/1999/xlink" x="0px" y="0px"
	 viewBox="0 0 512 512" style="enable-background:new 0 0 512 512;" xml:space="preserve">
<g>
	<g>
		<path d="M473.611,298.332c-24.603-58.167-59.822-110.405-104.68-155.263c-44.858-44.858-97.096-80.077-155.263-104.68
			C153.443,12.916,89.472,0,23.532,0C10.556,0,0,10.556,0,23.532v464.936C0,501.443,10.557,512,23.532,512h464.936
			C501.444,512,512,501.443,512,488.468C512,422.528,499.084,358.557,473.611,298.332z M488.468,497H23.532
			c-4.705,0-8.532-3.828-8.532-8.532V23.532C15,18.827,18.828,15,23.532,15c63.921,0,125.926,12.517,184.293,37.204
			c56.379,23.847,107.015,57.986,150.5,101.471s77.625,94.121,101.471,150.5C484.483,362.542,497,424.547,497,488.468
			C497,493.173,493.173,497,488.468,497z"/>
	</g>
</g>
<g>
	<g>
		<path d="M465.445,374.433C445.2,295.735,403.96,223.598,346.182,165.82c-57.778-57.778-129.915-99.019-208.614-119.264
			c-23.753-6.11-48.613,0.36-66.506,17.308c-18.086,17.132-25.97,41.914-21.089,66.292l21.3,106.379
			c5.153,25.736,2.821,52.259-6.743,76.702l-26.632,68.06c-10.53,26.909-4.378,56.318,16.055,76.751
			c13.83,13.831,31.773,21.118,50.27,21.118c8.83,0,17.786-1.661,26.481-5.063l68.06-26.632
			c24.442-9.565,50.966-11.896,76.702-6.743l106.379,21.3c24.38,4.882,49.159-3.003,66.292-21.089
			C465.085,423.046,471.555,398.185,465.445,374.433z M437.246,430.622c-13.561,14.317-33.171,20.56-52.456,16.697l-106.379-21.3
			c-28.56-5.719-57.99-3.13-85.113,7.482l-68.06,26.632c-21.275,8.325-44.525,3.461-60.679-12.692
			c-16.154-16.153-21.017-39.404-12.692-60.679l26.632-68.06c10.613-27.123,13.201-56.555,7.482-85.113l-21.3-106.379
			c-3.861-19.285,2.38-38.895,16.697-52.456c10.625-10.063,24.352-15.448,38.473-15.448c4.649,0,9.343,0.584,13.98,1.777
			c76.101,19.577,145.863,59.461,201.744,115.342c55.881,55.881,95.765,125.643,115.342,201.744
			C455.733,396.891,450.623,416.5,437.246,430.622z"/>
	</g>
</g>
<g>
	<g>
		<path d="M434.394,382.421c-14.625-56.85-40.356-109.111-76.481-155.33c-35.707-45.68-79.572-82.951-130.379-110.777
			c-3.633-1.989-8.191-0.657-10.181,2.976c-1.99,3.633-0.657,8.191,2.976,10.181c49.009,26.84,91.321,62.792,125.762,106.857
			c34.845,44.582,59.666,94.992,73.772,149.83c2.523,9.808-1.576,17.046-4.244,20.488c-4.803,6.195-11.894,9.748-19.455,9.748
			c-1.663,0-3.371-0.173-5.079-0.516l-106.379-21.3C272.848,392.204,260.704,391,248.61,391h-0.213
			c-9.174,0-17.558-3.332-23.61-9.384l-94.483-94.483c-5.829-5.829-9.106-13.61-9.306-22.001
			c0.116-12.629-1.066-25.303-3.575-37.838l-21.3-106.379c-2-9.993,2.331-17.134,5.091-20.501
			c4.728-5.768,11.472-9.076,18.501-9.076c2.006,0,4.068,0.269,6.128,0.799c21.51,5.533,42.701,12.87,62.986,21.805
			c3.791,1.671,8.217-0.049,9.887-3.84s-0.049-8.217-3.84-9.887c-21.029-9.264-42.998-16.869-65.295-22.605
			c-3.28-0.844-6.599-1.271-9.864-1.271h-0.001c-11.542,0-22.513,5.31-30.101,14.567c-4.441,5.418-11.412,16.904-8.198,32.955
			l21.3,106.379c6.361,31.769,3.482,64.509-8.324,94.682l-26.632,68.061c-6.638,16.964-0.375,30.125,3.949,36.461
			c7.557,11.07,19.73,17.679,32.563,17.679c4.903,0,9.865-0.969,14.749-2.879l35.507-13.894c3.857-1.509,5.761-5.86,4.251-9.717
			c-1.509-3.857-5.86-5.761-9.717-4.251l-35.506,13.894c-3.135,1.226-6.258,1.848-9.284,1.848c-7.873,0-15.415-4.163-20.174-11.136
			c-3.244-4.753-6.289-12.522-2.369-22.539l26.632-68.061c4.375-11.181,7.621-22.686,9.731-34.362
			c0.525,0.58,1.051,1.158,1.608,1.714l94.483,94.483c0.585,0.585,1.188,1.145,1.801,1.695c-11.697,2.109-23.184,5.348-34.368,9.724
			c-3.857,1.509-5.761,5.86-4.251,9.717c1.51,3.857,5.861,5.762,9.717,4.251c19.687-7.704,40.389-11.61,61.531-11.61
			c11.106,0,22.26,1.105,33.15,3.286l106.378,21.3c2.675,0.536,5.375,0.808,8.025,0.808c12.232,0,23.645-5.67,31.31-15.557
			C431.827,410.226,438.51,398.424,434.394,382.421z"/>
	</g>
</g>
<g>
	<g>
		<path d="M264.016,464.936h-24.048c-4.142,0-7.5,3.358-7.5,7.5c0,4.142,3.358,7.5,7.5,7.5h24.048c4.142,0,7.5-3.358,7.5-7.5
			C271.516,468.294,268.158,464.936,264.016,464.936z"/>
	</g>
</g>
<g>
	<g>
		<path d="M296.161,464.936h-0.08c-4.142,0-7.46,3.358-7.46,7.5c0,4.142,3.398,7.5,7.54,7.5c4.142,0,7.5-3.358,7.5-7.5
			C303.661,468.294,300.303,464.936,296.161,464.936z"/>
	</g>
</g>
<g>
	<g>
		<path d="M207.983,464.936h-0.08c-4.142,0-7.46,3.358-7.46,7.5c0,4.142,3.398,7.5,7.54,7.5c4.142,0,7.5-3.358,7.5-7.5
			C215.483,468.294,212.125,464.936,207.983,464.936z"/>
	</g>
</g>
<g>
	<g>
		<path d="M288.065,200.404c-12.975,0-23.532,10.557-23.532,23.532c0,12.975,10.557,23.532,23.532,23.532
			c12.975,0,23.532-10.557,23.532-23.532C311.597,210.96,301.04,200.404,288.065,200.404z M288.064,232.468
			c-4.704,0-8.532-3.828-8.532-8.532c0-4.705,3.828-8.532,8.532-8.532c4.704,0,8.532,3.828,8.532,8.532
			C296.596,228.64,292.768,232.468,288.064,232.468z"/>
	</g>
</g>
<g>
</g>
<g>
</g>
<g>
</g>
<g>
</g>
<g>
</g>
<g>
</g>
<g>
</g>
<g>
</g>
<g>
</g>
<g>
</g>
<g>
</g>
<g>
</g>
<g>
</g>
<g>
</g>
<g>
</g>
</svg>
