<?xml version="1.0"?>
<svg xmlns="http://www.w3.org/2000/svg" viewBox="0 0 512 512" width="512" height="512"><g id="Out_line" data-name="Out line"><circle cx="328" cy="216" r="8"/><circle cx="328" cy="312" r="8"/><circle cx="328" cy="408" r="8"/><path d="M120,192H56a7.99977,7.99977,0,0,0-8,8V424a7.99977,7.99977,0,0,0,8,8h64a7.99977,7.99977,0,0,0,8-8V200A7.99977,7.99977,0,0,0,120,192Zm-8,224H64V208h48Z"/><path d="M488,448H472V136a7.99977,7.99977,0,0,0-8-8H438.62378A23.88238,23.88238,0,0,0,440,120V99.31348a35.08178,35.08178,0,0,0-10.34326-24.97022A19.18705,19.18705,0,0,1,424,60.68652V24a7.99977,7.99977,0,0,0-8-8H384a7.99977,7.99977,0,0,0-8,8V60.68652a19.18705,19.18705,0,0,1-5.65674,13.65674A35.08178,35.08178,0,0,0,360,99.31348V120a23.88238,23.88238,0,0,0,1.37622,8h-4.73364L328.92236,79.48975,351.353,27.15137A8,8,0,0,0,344,16H216a7.99956,7.99956,0,0,0-7.353,4.84863L162.725,128H152a7.99977,7.99977,0,0,0-8,8v24H24a7.99977,7.99977,0,0,0-8,8V456a7.99977,7.99977,0,0,0,8,8h96v24a7.99977,7.99977,0,0,0,8,8H488a7.99977,7.99977,0,0,0,8-8V456A7.99977,7.99977,0,0,0,488,448ZM456,160H400V144h56ZM384,352H280V272H384ZM160,272H264v17.3761A23.88532,23.88532,0,0,0,256,288H200a24.02687,24.02687,0,0,0-24,24v32a23.88532,23.88532,0,0,0,1.3761,8H160Zm32-24V216a8.00917,8.00917,0,0,1,8-8h56a8.00917,8.00917,0,0,1,8,8v8H208v16h56v8a8.00917,8.00917,0,0,1-8,8H200A8.00917,8.00917,0,0,1,192,248Zm0,96V312a8.00917,8.00917,0,0,1,8-8h56a8.00917,8.00917,0,0,1,8,8v8H208v16h56v8a8.00917,8.00917,0,0,1-8,8H200A8.00917,8.00917,0,0,1,192,344Zm192-88H280V176H384ZM264,193.3761A23.88532,23.88532,0,0,0,256,192H200a24.02687,24.02687,0,0,0-24,24v32a23.88532,23.88532,0,0,0,1.3761,8H160V176H264ZM160,368H264v17.3761A23.88532,23.88532,0,0,0,256,384H200a24.02687,24.02687,0,0,0-24,24v32a23.88532,23.88532,0,0,0,1.3761,8H160Zm32,72V408a8.00917,8.00917,0,0,1,8-8h56a8.00917,8.00917,0,0,1,8,8v8H208v16h56v8a8.00917,8.00917,0,0,1-8,8H200A8.00917,8.00917,0,0,1,192,440Zm88-72H384v80H280Zm96-248V99.31348a19.18705,19.18705,0,0,1,5.65674-13.65674A35.08178,35.08178,0,0,0,392,60.68652V32h16V60.68652a35.08178,35.08178,0,0,0,10.34326,24.97022A19.18705,19.18705,0,0,1,424,99.31348V120a8.00917,8.00917,0,0,1-8,8H384A8.00917,8.00917,0,0,1,376,120Zm-37.78564,8H308.1322l12.89246-30.08228Zm-116.939-96H331.86768L290.725,128H180.1322ZM384,144v16H160V144ZM32,176H144V448H32ZM136,464H408v16H136Zm264-16V176h56V448Zm80,32H424V464h56Z"/><path d="M303.15527,59.57764A7.99974,7.99974,0,0,0,296,48H240a7.99924,7.99924,0,0,0-7.15527,4.42236l-24,48A7.99974,7.99974,0,0,0,216,112h56a7.99924,7.99924,0,0,0,7.15527-4.42236ZM267.05566,96H228.94434l16-32h38.11132Z"/></g></svg>
