<?xml version="1.0" encoding="iso-8859-1"?>
<!-- Generator: Adobe Illustrator 19.0.0, SVG Export Plug-In . SVG Version: 6.00 Build 0)  -->
<svg version="1.1" id="Capa_1" xmlns="http://www.w3.org/2000/svg" xmlns:xlink="http://www.w3.org/1999/xlink" x="0px" y="0px"
	 viewBox="0 0 480 480" style="enable-background:new 0 0 480 480;" xml:space="preserve">
<g>
	<g>
		<g>
			<path d="M456,172H24v112h432V172z M440,268H40v-80h400V268z"/>
			<path d="M80,252c13.255,0,24-10.745,24-24s-10.745-24-24-24s-24,10.745-24,24S66.745,252,80,252z M80,220c4.418,0,8,3.582,8,8
				s-3.582,8-8,8s-8-3.582-8-8S75.582,220,80,220z"/>
			<path d="M208,252h208c4.418,0,8-3.582,8-8v-32c0-4.418-3.582-8-8-8H208c-4.418,0-8,3.582-8,8v32C200,248.418,203.582,252,208,252
				z M216,220h192v16H216V220z"/>
			<path d="M472,148H8c-4.418,0-8,3.582-8,8v144c0,4.418,3.582,8,8,8h40v24h80v-24h224v24h80v-24h40c4.418,0,8-3.582,8-8V156
				C480,151.582,476.418,148,472,148z M112,316H64v-8h48V316z M416,316h-48v-8h48V316z M464,292H16V164h448V292z"/>
			<rect x="120" y="220" width="16" height="16"/>
			<rect x="144" y="220" width="16" height="16"/>
			<rect x="168" y="220" width="16" height="16"/>
		</g>
	</g>
</g>
<g>
</g>
<g>
</g>
<g>
</g>
<g>
</g>
<g>
</g>
<g>
</g>
<g>
</g>
<g>
</g>
<g>
</g>
<g>
</g>
<g>
</g>
<g>
</g>
<g>
</g>
<g>
</g>
<g>
</g>
</svg>
