<svg height="512" viewBox="0 0 64 64" width="512" xmlns="http://www.w3.org/2000/svg"><g id="outline"><path d="m61.555 24.168-5.555-3.703v-13.465a5.006 5.006 0 0 0 -5-5h-38a5.006 5.006 0 0 0 -5 5v13.465l-5.555 3.7a1 1 0 0 0 -.445.835v2a1 1 0 0 0 .445.832l5.555 3.703v13.465a5.006 5.006 0 0 0 5 5v11a1 1 0 0 0 1 1h36a1 1 0 0 0 1-1v-11a5.006 5.006 0 0 0 5-5v-13.465l5.555-3.7a1 1 0 0 0 .445-.835v-2a1 1 0 0 0 -.445-.832zm-12.555 35.832h-34v-10h2v7a1 1 0 0 0 1 1h4a1 1 0 0 0 1-1v-7h2v7a1 1 0 0 0 1 1h4a1 1 0 0 0 1-1v-7h2v7a1 1 0 0 0 1 1h4a1 1 0 0 0 1-1v-7h2v7a1 1 0 0 0 1 1h4a1 1 0 0 0 1-1v-7h2zm-30-4v-6h2v6zm8 0v-6h2v6zm8 0v-6h2v6zm8 0v-6h2v6zm17-29.535-5.555 3.7a1 1 0 0 0 -.445.835v14a3 3 0 0 1 -3 3h-38a3 3 0 0 1 -3-3v-14a1 1 0 0 0 -.445-.832l-5.555-3.703v-.93l5.555-3.7a1 1 0 0 0 .445-.835v-14a3 3 0 0 1 3-3h38a3 3 0 0 1 3 3v14a1 1 0 0 0 .445.832l5.555 3.703z"/><path d="m51 6h-38a1 1 0 0 0 -1 1v38a1 1 0 0 0 1 1h38a1 1 0 0 0 1-1v-38a1 1 0 0 0 -1-1zm-1 38h-36v-36h36z"/><path d="m8 25h2v2h-2z"/><path d="m54 25h2v2h-2z"/><path d="m48 36h-32v6h32zm-2 4h-28v-2h28z"/><path d="m48 26v-12h-32v12zm-6-10h4v8h-4zm-6 0h4v8h-4zm-6 0h4v8h-4zm-6 0h4v8h-4zm-6 0h4v8h-4z"/><path d="m19 34a3 3 0 1 0 -3-3 3 3 0 0 0 3 3zm0-4a1 1 0 1 1 -1 1 1 1 0 0 1 1-1z"/><path d="m25 34a3 3 0 1 0 -3-3 3 3 0 0 0 3 3zm0-4a1 1 0 1 1 -1 1 1 1 0 0 1 1-1z"/><path d="m31 34a3 3 0 1 0 -3-3 3 3 0 0 0 3 3zm0-4a1 1 0 1 1 -1 1 1 1 0 0 1 1-1z"/><path d="m36 32h4v2h-4z"/><path d="m42 32h6v2h-6z"/><path d="m36 28h8v2h-8z"/><path d="m46 28h2v2h-2z"/><path d="m16 10h2v2h-2z"/><path d="m46 10h2v2h-2z"/></g></svg>