<svg height="512" viewBox="0 0 512 512" width="512" xmlns="http://www.w3.org/2000/svg"><g><path d="m476 104h-440a28.031 28.031 0 0 0 -28 28v256a28.031 28.031 0 0 0 28 28h440a28.031 28.031 0 0 0 28-28v-256a28.031 28.031 0 0 0 -28-28zm-452 152h8v72a8 8 0 0 0 8 8h8v32h-24zm464 132a12.01 12.01 0 0 1 -12 12h-440a12.01 12.01 0 0 1 -12-12v-4h464zm-424-68h-16v-64h16zm8 16a8 8 0 0 0 8-8v-72h8v112h-24v-32zm48 0h8v32h-24v-112h8v72a8 8 0 0 0 8 8zm24-16h-16v-64h16zm8 16a8 8 0 0 0 8-8v-72h8v112h-24v-32zm48 0h8v32h-24v-112h8v72a8 8 0 0 0 8 8zm24-16h-16v-64h16zm8 16a8 8 0 0 0 8-8v-72h8v112h-24v-32zm32 32v-112h24v112zm56-32h8v32h-24v-112h8v72a8 8 0 0 0 8 8zm24-16h-16v-64h16zm8 16a8 8 0 0 0 8-8v-72h8v112h-24v-32zm48 0h8v32h-24v-112h8v72a8 8 0 0 0 8 8zm24-16h-16v-64h16zm8 16a8 8 0 0 0 8-8v-72h8v112h-24v-32zm56 32h-24v-112h24zm0-128h-464v-8h464zm0-24h-464v-84a12.01 12.01 0 0 1 12-12h440a12.01 12.01 0 0 1 12 12z"/><path d="m80 208a40 40 0 1 0 -40-40 40.045 40.045 0 0 0 40 40zm0-64a24 24 0 1 1 -24 24 24.028 24.028 0 0 1 24-24z"/><path d="m432 208a40 40 0 1 0 -40-40 40.045 40.045 0 0 0 40 40zm0-64a24 24 0 1 1 -24 24 24.028 24.028 0 0 1 24-24z"/><path d="m136 208h136a8 8 0 0 0 8-8v-64a8 8 0 0 0 -8-8h-136a8 8 0 0 0 -8 8v64a8 8 0 0 0 8 8zm8-64h120v48h-120z"/><path d="m296 168v32a8 8 0 0 0 16 0v-32a8 8 0 0 0 0-16v-16a8 8 0 0 0 -16 0v16a8 8 0 0 0 0 16z"/><path d="m328 192v8a8 8 0 0 0 16 0v-8a8 8 0 0 0 0-16v-40a8 8 0 0 0 -16 0v40a8 8 0 0 0 0 16z"/><path d="m360 168v32a8 8 0 0 0 16 0v-32a8 8 0 0 0 0-16v-16a8 8 0 0 0 -16 0v16a8 8 0 0 0 0 16z"/></g></svg>