<svg height="512" viewBox="0 0 64 64" width="512" xmlns="http://www.w3.org/2000/svg"><g id="Fax-Telephone"><path d="m57 26h-1v-11a3 3 0 0 0 -3-3h-3v-9a1 1 0 0 0 -1-1h-22a1 1 0 0 0 -1 1v9h-3a3 3 0 0 0 -3 3v11h-1a5.009 5.009 0 0 0 -4.9 4h-2.1v-3a3 3 0 0 0 -3-3h-4a3 3 0 0 0 -3 3v17a3 3 0 0 0 2 2.816v2.184a2 2 0 0 0 2 2h.08a7 7 0 0 0 13.92-1v-4h6v15a1 1 0 0 0 1 1h22a1 1 0 0 0 1-1v-15h10a2 2 0 0 0 2-2v-13a5.006 5.006 0 0 0 -5-5zm-4-12a1 1 0 0 1 1 1v11h-4v-12zm-25-10h20v22h-20zm-6 11a1 1 0 0 1 1-1h3v12h-4zm-8 17v8h-2v-8zm-10-5a1 1 0 0 1 1-1h4a1 1 0 0 1 1 1v17a1 1 0 0 1 -1 1h-4a1 1 0 0 1 -1-1zm4 22h-2v-2h2zm10 1a5 5 0 0 1 -9.9.99 2 2 0 0 0 1.9-1.99v-2.184a3 3 0 0 0 2-2.816v-2h2v2a2 2 0 0 0 2 2h2zm6-6v-2h2v2zm24 16h-20v-18h20zm2-16v-2h2v2zm10 0h-6v-2a2 2 0 0 0 -2-2h-28a2 2 0 0 0 -2 2v2h-6v-13a3 3 0 0 1 3-3h38a3 3 0 0 1 3 3z"/><path d="m31 30h-12a1 1 0 0 0 -1 1v6a1 1 0 0 0 1 1h12a1 1 0 0 0 1-1v-6a1 1 0 0 0 -1-1zm-1 6h-10v-4h10z"/><path d="m36 30h2v2h-2z"/><path d="m40 30h2v2h-2z"/><path d="m44 30h2v2h-2z"/><path d="m36 33h2v2h-2z"/><path d="m40 33h2v2h-2z"/><path d="m44 33h2v2h-2z"/><path d="m36 36h2v2h-2z"/><path d="m40 36h2v2h-2z"/><path d="m44 36h2v2h-2z"/><path d="m54 30a4 4 0 1 0 4 4 4 4 0 0 0 -4-4zm0 6a2 2 0 1 1 2-2 2 2 0 0 1 -2 2z"/><path d="m30 44h16v2h-16z"/><path d="m30 48h16v2h-16z"/><path d="m30 52h16v2h-16z"/><path d="m30 14h16v2h-16z"/><path d="m30 10h16v2h-16z"/><path d="m34 6h12v2h-12z"/><path d="m30 18h16v2h-16z"/><path d="m30 22h16v2h-16z"/><path d="m30 56h16v2h-16z"/><path d="m30 6h2v2h-2z"/></g></svg>