<svg height="512" viewBox="0 0 512 512" width="512" xmlns="http://www.w3.org/2000/svg"><g><path d="m408 8h-304a8 8 0 0 0 -8 8v480a8 8 0 0 0 8 8h16a8 8 0 0 0 7.76-6.06l6.49-25.94h243.5l6.49 25.94a8 8 0 0 0 7.76 6.06h16a8 8 0 0 0 8-8v-480a8 8 0 0 0 -8-8zm-294.25 480h-1.75v-16h5.75zm286.25 0h-1.75l-4-16h5.75zm0-32h-288v-432h288z"/><path d="m136 304h240a8 8 0 0 0 8-8v-112a8 8 0 0 0 -8-8h-240a8 8 0 0 0 -8 8v112a8 8 0 0 0 8 8zm8-112h224v96h-224z"/><path d="m304 208a8 8 0 0 0 -8 8v8h-80v-8a8 8 0 0 0 -16 0v16a8 8 0 0 0 8 8h96a8 8 0 0 0 8-8v-16a8 8 0 0 0 -8-8z"/><path d="m136 168h240a8 8 0 0 0 8-8v-112a8 8 0 0 0 -8-8h-240a8 8 0 0 0 -8 8v112a8 8 0 0 0 8 8zm8-112h224v96h-224z"/><path d="m304 72a8 8 0 0 0 -8 8v8h-80v-8a8 8 0 0 0 -16 0v16a8 8 0 0 0 8 8h96a8 8 0 0 0 8-8v-16a8 8 0 0 0 -8-8z"/><path d="m136 440h240a8 8 0 0 0 8-8v-112a8 8 0 0 0 -8-8h-240a8 8 0 0 0 -8 8v112a8 8 0 0 0 8 8zm8-112h224v96h-224z"/><path d="m304 344a8 8 0 0 0 -8 8v8h-80v-8a8 8 0 0 0 -16 0v16a8 8 0 0 0 8 8h96a8 8 0 0 0 8-8v-16a8 8 0 0 0 -8-8z"/></g></svg>