<?xml version="1.0" encoding="iso-8859-1"?>
<!-- Generator: Adobe Illustrator 19.0.0, SVG Export Plug-In . SVG Version: 6.00 Build 0)  -->
<svg version="1.1" id="Capa_1" xmlns="http://www.w3.org/2000/svg" xmlns:xlink="http://www.w3.org/1999/xlink" x="0px" y="0px"
	 viewBox="0 0 511.999 511.999" style="enable-background:new 0 0 511.999 511.999;" xml:space="preserve">
<g>
	<g>
		<path d="M504.152,256.002c0-4.15-3.364-7.515-7.515-7.515H16.697c-4.15,0-7.515,3.365-7.515,7.515c0,4.15,3.365,7.515,7.515,7.515
			h72.623l-34.842,49.096H30.725c-4.15,0-7.515,3.365-7.515,7.515c0,4.15,3.365,7.515,7.515,7.515h13.087L22.509,357.66
			c-2.184,3.078-1.698,7.443,1.123,9.956c3.301,2.941,8.576,2.346,11.134-1.256l27.476-38.717h44.289l-25.34,49.096H40.077
			c-4.15,0-7.515,3.365-7.515,7.515s3.365,7.515,7.515,7.515h33.356l-25.34,49.096H15.362c-4.15,0-7.515,3.365-7.515,7.515
			s3.365,7.515,7.515,7.515h24.975l-23.303,45.148c-1.757,3.405-0.6,7.708,2.625,9.774c3.681,2.358,8.73,0.995,10.73-2.881
			l26.86-52.042h63.904l-16.352,46.082c-1.298,3.656,0.495,7.824,4.048,9.388c3.95,1.739,8.675-0.3,10.117-4.363l18.136-51.108
			h63.182l-7.645,47.399c-0.643,3.987,2.106,7.878,6.084,8.591c4.083,0.73,8.093-2.096,8.754-6.197l8.031-49.793h81.32l8.031,49.792
			c0.66,4.094,4.672,6.939,8.754,6.197c3.975-0.721,6.727-4.597,6.084-8.591l-7.645-47.398h63.182l18.136,51.108
			c1.442,4.063,6.167,6.101,10.117,4.363c3.553-1.564,5.344-5.732,4.048-9.388l-16.353-46.082h63.904l26.86,52.042
			c2.004,3.882,7.044,5.23,10.73,2.881c3.229-2.058,4.381-6.375,2.626-9.774l-23.303-45.148h21.634c4.151,0,7.515-3.365,7.515-7.515
			s-3.364-7.515-7.515-7.515H464.24l-25.34-49.096h39.368c4.151,0,7.515-3.365,7.515-7.515s-3.364-7.515-7.515-7.515h-47.125
			l-25.34-49.096h44.289l28.869,40.679c2.556,3.603,7.832,4.197,11.134,1.256c2.822-2.513,3.307-6.877,1.123-9.956l-22.696-31.98
			h11.083c4.151,0,7.515-3.365,7.515-7.515c0-4.15-3.364-7.515-7.515-7.515h-21.749l-34.842-49.096h73.624
			C500.789,263.516,504.152,260.152,504.152,256.002z M355.793,263.516l25.34,49.096h-40.794l-17.421-49.096H355.793z
			 M306.969,263.516l17.421,49.096h-35.449l-7.919-49.096H306.969z M246.535,263.516h19.264l7.919,49.096h-35.101L246.535,263.516z
			 M276.141,327.642l7.918,49.096h-55.786l7.919-49.096H276.141z M231.311,263.516l-7.919,49.096h-35.449l17.421-49.096H231.311z
			 M189.417,263.516l-17.421,49.096h-40.795l25.34-49.096H189.417z M72.908,312.612l34.842-49.096h31.877l-25.34,49.096H72.908z
			 M123.444,327.642h43.219l-17.421,49.096H98.104L123.444,327.642z M126.487,440.864h-61.48l25.34-49.096h53.562L126.487,440.864z
			 M202.708,440.864h-60.273l17.421-49.096h50.771L202.708,440.864z M213.05,376.738h-47.861l17.421-49.096h38.358L213.05,376.738z
			 M217.931,440.864l7.919-49.096h60.635l7.918,49.096H217.931z M291.365,327.642h38.359l17.421,49.096h-47.861L291.365,327.642z
			 M309.626,440.864l-7.918-49.096h50.77l17.421,49.096H309.626z M447.327,440.864h-61.479l-17.421-49.096h53.561L447.327,440.864z
			 M414.229,376.738h-51.137l-17.421-49.096h43.218L414.229,376.738z M439.426,312.612h-41.379l-25.34-49.096h31.876
			L439.426,312.612z"/>
	</g>
</g>
<g>
	<g>
		<path d="M263.681,120.835v-1.601h0.501c4.151,0,7.515-3.365,7.515-7.515s-3.364-7.515-7.515-7.515h-0.501V7.515
			c0-4.15-3.364-7.515-7.515-7.515c-4.15,0-7.515,3.365-7.515,7.515v96.689h-0.501c-4.15,0-7.515,3.365-7.515,7.515
			s3.365,7.515,7.515,7.515h0.501v1.601c-22.684,3.614-40.079,23.309-40.079,46.994c0,26.242,21.351,47.593,47.593,47.593
			c26.242,0,47.593-21.351,47.593-47.593C303.76,144.143,286.366,124.449,263.681,120.835z M224.488,175.343h8.402
			c0.441,6.243,1.434,12.4,3.013,17.948C230.296,188.82,226.196,182.542,224.488,175.343z M232.89,160.314h-8.402
			c1.708-7.198,5.808-13.476,11.415-17.948C234.324,147.914,233.331,154.071,232.89,160.314z M256.167,200.311
			c-2.28-1.298-6.997-9.738-8.217-24.968h16.434C263.162,190.573,258.446,199.015,256.167,200.311z M247.949,160.314
			c1.22-15.23,5.937-23.671,8.217-24.968c2.279,1.298,6.997,9.738,8.217,24.968H247.949z M276.431,193.292
			c1.579-5.548,2.572-11.705,3.012-17.948h8.402C286.138,182.542,282.038,188.82,276.431,193.292z M279.443,160.314
			c-0.441-6.243-1.434-12.4-3.012-17.948c5.607,4.472,9.707,10.75,11.414,17.948H279.443z"/>
	</g>
</g>
<g>
	<g>
		<path d="M440.027,80.756v-1.601h0.501c4.151,0,7.515-3.365,7.515-7.515c0-4.15-3.364-7.515-7.515-7.515h-0.501V7.515
			c0-4.15-3.364-7.515-7.515-7.515c-4.151,0-7.515,3.365-7.515,7.515v56.611h-0.501c-4.151,0-7.515,3.365-7.515,7.515
			c0,4.15,3.364,7.515,7.515,7.515h0.501v1.601c-22.684,3.614-40.078,23.309-40.078,46.994c0,26.242,21.351,47.593,47.593,47.593
			c26.242,0,47.593-21.351,47.593-47.593C480.105,104.065,462.711,84.37,440.027,80.756z M400.833,135.265h8.402
			c0.441,6.243,1.434,12.4,3.012,17.948C406.64,148.741,402.541,142.463,400.833,135.265z M409.235,120.236h-8.402
			c1.708-7.198,5.807-13.476,11.414-17.948C410.668,107.835,409.675,113.992,409.235,120.236z M432.512,160.233
			c-2.279-1.298-6.997-9.738-8.217-24.968h16.434C439.508,150.495,434.791,158.936,432.512,160.233z M424.295,120.236
			c1.221-15.23,5.938-23.671,8.217-24.968c2.279,1.298,6.997,9.738,8.217,24.968H424.295z M452.777,153.213
			c1.579-5.548,2.572-11.705,3.012-17.948h8.402C462.484,142.463,458.384,148.741,452.777,153.213z M455.789,120.236
			c-0.441-6.243-1.434-12.4-3.012-17.948c5.607,4.472,9.707,10.75,11.414,17.948H455.789z"/>
	</g>
</g>
<g>
	<g>
		<path d="M87.336,80.756v-1.601h0.501c4.15,0,7.515-3.365,7.515-7.515c0-4.15-3.365-7.515-7.515-7.515h-0.501V7.515
			c0-4.15-3.365-7.515-7.515-7.515c-4.15,0-7.515,3.365-7.515,7.515v56.611h-0.501c-4.15,0-7.515,3.365-7.515,7.515
			c0,4.15,3.365,7.515,7.515,7.515h0.501v1.601c-22.684,3.614-40.078,23.309-40.078,46.994c0,26.242,21.351,47.593,47.593,47.593
			c26.242,0,47.593-21.351,47.593-47.593C127.414,104.065,110.02,84.37,87.336,80.756z M48.142,135.265h8.402
			c0.441,6.243,1.434,12.4,3.013,17.948C53.95,148.741,49.85,142.463,48.142,135.265z M56.545,120.236h-8.402
			c1.708-7.198,5.808-13.476,11.415-17.948C57.978,107.835,56.985,113.992,56.545,120.236z M79.821,160.233
			c-2.28-1.298-6.997-9.738-8.217-24.968h16.434C86.817,150.495,82.101,158.936,79.821,160.233z M71.604,120.236
			c1.22-15.23,5.937-23.671,8.217-24.968c2.28,1.298,6.997,9.738,8.217,24.968H71.604z M100.085,153.213
			c1.579-5.548,2.572-11.705,3.013-17.948h8.402C109.793,142.463,105.693,148.741,100.085,153.213z M103.098,120.236
			c-0.441-6.243-1.434-12.4-3.013-17.948c5.608,4.472,9.708,10.75,11.415,17.948H103.098z"/>
	</g>
</g>
<g>
	<g>
		<path d="M376.402,72.141c-12.644,0-24.548-18.345-24.548-32.564c0-4.15-3.364-7.515-7.515-7.515c-4.151,0-7.515,3.365-7.515,7.515
			c0,14.219-11.904,32.564-24.548,32.564c-4.151,0-7.515,3.365-7.515,7.515s3.365,7.515,7.515,7.515
			c12.644,0,24.548,18.345,24.548,32.564c0,4.15,3.364,7.515,7.515,7.515c4.151,0,7.515-3.365,7.515-7.515
			c0-14.219,11.904-32.564,24.548-32.564c4.151,0,7.515-3.365,7.515-7.515S380.553,72.141,376.402,72.141z M344.339,93.469
			c-3.144-5.352-7.159-10.139-11.811-13.813c4.653-3.674,8.667-8.461,11.811-13.813c3.144,5.352,7.159,10.139,11.811,13.813
			C351.497,83.33,347.483,88.117,344.339,93.469z"/>
	</g>
</g>
<g>
	<g>
		<path d="M200.057,72.141c-12.644,0-24.548-18.345-24.548-32.564c0-4.15-3.365-7.515-7.515-7.515c-4.15,0-7.515,3.365-7.515,7.515
			c0,14.219-11.904,32.564-24.548,32.564c-4.15,0-7.515,3.365-7.515,7.515s3.365,7.515,7.515,7.515
			c12.644,0,24.548,18.345,24.548,32.564c0,4.15,3.365,7.515,7.515,7.515c4.15,0,7.515-3.365,7.515-7.515
			c0-14.219,11.904-32.564,24.548-32.564c4.15,0,7.515-3.365,7.515-7.515S204.207,72.141,200.057,72.141z M167.994,93.469
			c-3.144-5.352-7.159-10.139-11.811-13.813c4.653-3.674,8.667-8.461,11.811-13.813c3.144,5.352,7.159,10.139,11.811,13.813
			C175.152,83.33,171.138,88.117,167.994,93.469z"/>
	</g>
</g>
<g>
</g>
<g>
</g>
<g>
</g>
<g>
</g>
<g>
</g>
<g>
</g>
<g>
</g>
<g>
</g>
<g>
</g>
<g>
</g>
<g>
</g>
<g>
</g>
<g>
</g>
<g>
</g>
<g>
</g>
</svg>
