<svg id="Capa_1" enable-background="new 0 0 512 512" height="512" viewBox="0 0 512 512" width="512" xmlns="http://www.w3.org/2000/svg"><g><path d="m512 121c0-11.115-8.104-20.367-18.711-22.175 11.483-10.392 18.711-25.404 18.711-42.075 0-31.292-25.458-56.75-56.75-56.75s-56.75 25.458-56.75 56.75c0 16.671 7.228 31.683 18.711 42.075-10.607 1.808-18.711 11.06-18.711 22.175 0 9.777 6.271 18.114 15 21.21v17.58c-8.729 3.096-15 11.433-15 21.21s6.271 18.114 15 21.21v302.29c0 4.143 3.357 7.5 7.5 7.5h68.5c4.143 0 7.5-3.357 7.5-7.5v-302.29c8.729-3.096 15-11.433 15-21.21s-6.271-18.114-15-21.21v-17.58c8.729-3.096 15-11.433 15-21.21zm-83.5 37.5v-15h53.5v15zm-15-101.75c0-23.021 18.729-41.75 41.75-41.75s41.75 18.729 41.75 41.75-18.729 41.75-41.75 41.75-41.75-18.729-41.75-41.75zm7.5 56.75h68.5c4.136 0 7.5 3.364 7.5 7.5s-3.364 7.5-7.5 7.5h-68.5c-4.136 0-7.5-3.364-7.5-7.5s3.364-7.5 7.5-7.5zm7.5 383.5v-293.5h53.5v293.5zm61-308.5h-68.5c-4.136 0-7.5-3.364-7.5-7.5s3.364-7.5 7.5-7.5h68.5c4.136 0 7.5 3.364 7.5 7.5s-3.364 7.5-7.5 7.5z"/><path d="m113.5 181c0-9.777-6.271-18.114-15-21.21v-17.669c7.965-2.854 13.901-9.9 14.86-18.593.705-6.388-1.335-12.779-5.598-17.537-3.411-3.808-8.005-6.313-12.976-7.164 11.486-10.392 18.714-25.405 18.714-42.077 0-31.292-25.458-56.75-56.75-56.75s-56.75 25.458-56.75 56.75c0 16.695 7.249 31.726 18.762 42.119-9.813 1.744-17.518 9.587-18.622 19.602-.705 6.388 1.335 12.779 5.598 17.537 2.542 2.838 5.742 4.947 9.263 6.193v17.588c-8.73 3.097-15.001 11.434-15.001 21.211s6.271 18.114 15 21.21v302.29c0 4.143 3.358 7.5 7.5 7.5h68.5c4.142 0 7.5-3.357 7.5-7.5v-75c0-4.143-3.358-7.5-7.5-7.5s-7.5 3.357-7.5 7.5v67.5h-53.5v-293.5h53.5v196c0 4.143 3.358 7.5 7.5 7.5s7.5-3.357 7.5-7.5v-197.29c8.729-3.096 15-11.433 15-21.21zm-30-37.5v15h-53.5v-15zm-68.5-86.75c0-23.021 18.729-41.75 41.75-41.75s41.75 18.729 41.75 41.75-18.729 41.75-41.75 41.75-41.75-18.729-41.75-41.75zm.049 63.366c.41-3.71 3.855-6.616 7.845-6.616h68.106c2.161 0 4.146.888 5.59 2.499 1.441 1.609 2.102 3.699 1.861 5.885-.41 3.71-3.855 6.616-7.845 6.616h-68.106c-2.161 0-4.146-.888-5.59-2.499-1.441-1.609-2.102-3.699-1.861-5.885zm75.951 68.384h-68.5c-4.136 0-7.5-3.364-7.5-7.5s3.364-7.5 7.5-7.5h68.5c4.136 0 7.5 3.364 7.5 7.5s-3.364 7.5-7.5 7.5z"/><path d="m241 158.5c-21.356 0-41.256 9.564-54.597 26.24l-22.519 28.148c-10.479 13.099-26.109 20.612-42.884 20.612-4.142 0-7.5 3.357-7.5 7.5v233.5c0 4.143 3.358 7.5 7.5 7.5h112.5v22.5c0 4.143 3.358 7.5 7.5 7.5s7.5-3.357 7.5-7.5v-338.5c0-4.143-3.358-7.5-7.5-7.5zm-7.5 188.5h-15v-168.71c4.734-2.123 9.778-3.573 15-4.284zm-75 15h15v45h-15zm-15 45h-15v-45h15zm30 15v45h-15v-45zm15 0h15v45h-15zm0-15v-45h15v45zm30-45h15v45h-15zm-20.384-167.889c1.669-2.087 3.47-4.032 5.384-5.827v158.716h-15v-140.869zm-24.616 30.642v122.247h-15v-109.391c5.52-3.515 10.577-7.819 15-12.856zm-30 20.04v102.207h-15v-98.896c5.152-.548 10.173-1.677 15-3.311zm-15 177.207h15v45h-15zm90 45v-45h15v45z"/><path d="m391 233.5c-16.774 0-32.405-7.513-42.885-20.611l-22.519-28.148c-13.34-16.676-33.24-26.24-54.597-26.24-4.143 0-7.5 3.357-7.5 7.5v338.5c0 4.143 3.357 7.5 7.5 7.5s7.5-3.357 7.5-7.5v-22.501h112.501c4.143 0 7.5-3.357 7.5-7.5v-233.5c0-4.143-3.357-7.5-7.5-7.5zm-7.5 113.5h-15v-102.207c4.827 1.634 9.848 2.763 15 3.311zm-75 15h15v45h-15zm-15 45h-15v-45h15zm30 15v45h-15v-45zm15 0h15v45h-15zm0-15v-45h15v45zm30-45h15v45h-15zm-15-124.391v109.391h-15v-122.247c4.423 5.038 9.48 9.341 15 12.856zm-39.616-43.498 9.616 12.02v140.869h-15v-158.716c1.915 1.796 3.715 3.741 5.384 5.827zm-20.384-15.821v168.71h-15v-172.994c5.222.71 10.266 2.16 15 4.284zm-15 243.71h15v45h-15zm90 45v-45h15v45z"/></g></svg>