<svg id="blow_x5F_drier" enable-background="new 0 0 300 300" height="512" viewBox="0 0 300 300" width="512" xmlns="http://www.w3.org/2000/svg"><g><path d="m276 78.21c0-.056-.004-.112-.004-.168 0-.014.004-.028.004-.042 0-.024-.007-.047-.007-.071-.153-26.454-21.774-47.929-48.336-47.929-7.682 0-15.356.942-22.811 2.8l-99.041 24.687-24.668-7.321c-1.209-.361-2.519-.126-3.53.629-1.011.754-1.607 1.943-1.607 3.205v52c0 1.212.55 2.359 1.495 3.119s2.187 1.047 3.368.787l24.893-5.502 68.307 13.62 1.797 6.87-6.314 9.34c-2.099 3.105-2.311 7.09-.552 10.4 1.758 3.31 5.178 5.366 8.926 5.366h4.508l.945 3.613-6.659 9.853c-1.936 2.862-2.131 6.536-.511 9.587 1.621 3.051 4.773 4.947 8.229 4.947h5.321l14.624 55.899c1.861 7.108 8.281 12.075 15.623 12.098v2.003c0 12.131 9.869 22 22 22s22-9.869 22-22v-102c0-2.209-1.791-4-4-4s-4 1.791-4 4v102c0 7.72-6.28 14-14 14s-14-6.28-14-14v-3.008c1.708-.701 3.271-1.753 4.594-3.131 2.562-2.669 3.891-6.174 3.74-9.87l-4.293-105.778c24.609-2.217 43.959-22.894 43.959-48.003zm-69.218-37.648c5.434-1.354 10.997-2.168 16.589-2.446-3.597 13.169-23.221 35.884-65.371 35.884-16.337 0-35.152-3.365-45.837-9.853zm-28.862 101.438c-1.144 0-1.683-.782-1.86-1.119-.179-.336-.525-1.221.114-2.168l2.38-3.521 1.781 6.808zm6.512 28c-.688 0-1.024-.438-1.162-.699-.139-.261-.314-.784.072-1.355l2.726-4.033 1.592 6.087zm42.391 66.321c-1.04 1.083-2.439 1.679-3.94 1.679h-2.831c-3.728 0-6.991-2.519-7.935-6.125l-29.33-112.111 22.13 4.413c6.289 1.254 12.705 1.98 19.122 2.181l.16 3.951c-12.504 9.526-20.199 26.028-20.199 43.691 0 19.275 8.955 36.869 23.371 45.915.155.097.314.18.476.253l.493 12.148c.061 1.5-.478 2.922-1.517 4.005zm-2.205-95.708 2.818 69.446c-9.624-8.175-15.436-21.516-15.436-36.059 0-12.944 4.704-25.104 12.618-33.387zm3.039-22.192c-7.094 0-14.219-.703-21.175-2.09l-99.986-19.938c-.259-.051-.521-.077-.782-.077-.29 0-.579.031-.863.094l-20.851 4.609v-41.66l15.885 4.714c8.687 10.774 31.69 17.927 58.115 17.927 47.488 0 70.2-26.887 73.545-43.81 11.534 1.105 21.663 7.068 28.298 15.81h-15.843c-2.209 0-4 1.791-4 4s1.791 4 4 4h20c.185 0 .361-.03.539-.054 1.673 3.754 2.793 7.805 3.239 12.054h-19.778c-2.209 0-4 1.791-4 4s1.791 4 4 4h19.815c-.401 4.25-1.466 8.309-3.093 12.073-.235-.043-.475-.073-.722-.073h-20c-2.209 0-4 1.791-4 4s1.791 4 4 4h16.156c-7.351 9.95-19.179 16.421-32.499 16.421z"/><path d="m46 70h18c2.209 0 4-1.791 4-4s-1.791-4-4-4h-18c-3.309 0-6-2.691-6-6s2.691-6 6-6h6c2.209 0 4-1.791 4-4s-1.791-4-4-4h-6c-7.72 0-14 6.28-14 14s6.28 14 14 14z"/><path d="m68 78h-26c-9.925 0-18 8.075-18 18s8.075 18 18 18h6c2.209 0 4-1.791 4-4s-1.791-4-4-4h-6c-5.514 0-10-4.486-10-10s4.486-10 10-10h26c2.209 0 4-1.791 4-4s-1.791-4-4-4z"/></g></svg>