<?xml version="1.0" encoding="iso-8859-1"?>
<!-- Generator: Adobe Illustrator 19.0.0, SVG Export Plug-In . SVG Version: 6.00 Build 0)  -->
<svg version="1.1" id="Capa_1" xmlns="http://www.w3.org/2000/svg" xmlns:xlink="http://www.w3.org/1999/xlink" x="0px" y="0px"
	 viewBox="0 0 512 512" style="enable-background:new 0 0 512 512;" xml:space="preserve">
<g>
	<g>
		<path d="M396.465,354.5c4.143,0,7.5-3.357,7.5-7.5V17.5c0-9.649-7.851-17.5-17.5-17.5h-260.93c-9.65,0-17.5,7.851-17.5,17.5
			v394.681c0,9.649,7.85,17.5,17.5,17.5h60.362v10.549h-24.793c-6.893,0-12.5,5.607-12.5,12.5v13.042h-28.069
			c-6.893,0-12.5,5.607-12.5,12.5V499.5c0,6.893,5.607,12.5,12.5,12.5h270.93c6.893,0,12.5-5.607,12.5-12.5v-21.228
			c0-6.893-5.607-12.5-12.5-12.5h-28.071V452.73c0-6.893-5.607-12.5-12.5-12.5h-24.791v-10.549h60.362c9.649,0,17.5-7.851,17.5-17.5
			V389c0-4.143-3.357-7.5-7.5-7.5s-7.5,3.357-7.5,7.5v23.181c0,1.355-1.145,2.5-2.5,2.5h-260.93c-1.355,0-2.5-1.145-2.5-2.5V17.5
			c0-1.355,1.145-2.5,2.5-2.5h16.303v297.886c0,10.437,8.522,18.927,18.997,18.927h190.33c10.477,0,18.999-8.49,18.999-18.927V141
			c0-4.143-3.357-7.5-7.5-7.5s-7.5,3.357-7.5,7.5v171.886c0,2.165-1.794,3.927-3.999,3.927h-6.026V54.125h10.025V101
			c0,4.143,3.357,7.5,7.5,7.5s7.5-3.357,7.5-7.5V15h16.301c1.355,0,2.5,1.145,2.5,2.5V347
			C388.965,351.143,392.322,354.5,396.465,354.5z M348.394,455.23v10.541h-90.395c-4.143,0-7.5,3.357-7.5,7.5s3.357,7.5,7.5,7.5
			h130.966V497h-265.93v-16.228h92.964c4.143,0,7.5-3.357,7.5-7.5s-3.357-7.5-7.5-7.5h-52.394V455.23H348.394z M200.898,429.68
			h110.205v10.549H200.898V429.68z M166.863,316.813h-6.028c-2.204,0-3.997-1.762-3.997-3.927V54.125h10.025V316.813z
			 M330.138,316.813H181.863v-21.568h148.275V316.813z M330.138,280.244H181.863v-11.329h148.275V280.244z M181.863,253.915v-20.354
			h148.275v20.354H181.863z M330.138,95.098H181.863V54.125h148.275V95.098z M330.138,110.098v18.115H181.863v-18.115H330.138z
			 M330.138,143.213v11.33H181.863v-11.33H330.138z M330.138,169.542v22.688H181.863v-22.688H330.138z M330.138,207.23v11.33
			H181.863v-11.33H330.138z M355.164,39.125H156.838V15h198.326V39.125z"/>
	</g>
</g>
<g>
	<g>
		<path d="M281.471,348.81H230.53c-6.893,0-12.5,5.607-12.5,12.5v15.141c0,6.893,5.607,12.5,12.5,12.5h50.941
			c6.893,0,12.5-5.607,12.5-12.5V361.31C293.971,354.417,288.364,348.81,281.471,348.81z M233.03,373.95v-10.14h45.941v10.14H233.03
			z"/>
	</g>
</g>
<g>
	<g>
		<path d="M161.985,347.666c-11.109,0-20.147,9.004-20.147,20.071c0,11.066,9.038,20.07,20.147,20.07
			c11.11,0,20.148-9.004,20.148-20.07C182.133,356.67,173.095,347.666,161.985,347.666z M161.986,372.807
			c-2.838,0-5.147-2.274-5.147-5.07s2.31-5.071,5.147-5.071c2.838,0,5.148,2.275,5.148,5.071
			C167.134,370.533,164.824,372.807,161.986,372.807z"/>
	</g>
</g>
<g>
	<g>
		<path d="M350.014,347.666c-11.109,0-20.147,9.004-20.147,20.071c0,11.066,9.038,20.07,20.147,20.07
			c11.111,0,20.15-9.004,20.15-20.07C370.164,356.67,361.125,347.666,350.014,347.666z M350.014,372.808
			c-2.838,0-5.147-2.274-5.147-5.07s2.31-5.071,5.147-5.071c2.84,0,5.15,2.275,5.15,5.071S352.853,372.808,350.014,372.808z"/>
	</g>
</g>
<g>
</g>
<g>
</g>
<g>
</g>
<g>
</g>
<g>
</g>
<g>
</g>
<g>
</g>
<g>
</g>
<g>
</g>
<g>
</g>
<g>
</g>
<g>
</g>
<g>
</g>
<g>
</g>
<g>
</g>
</svg>
