<?xml version="1.0"?>
<svg xmlns="http://www.w3.org/2000/svg" viewBox="0 0 64 64" width="512" height="512"><g id="outline"><path d="M41,22A10,10,0,1,0,51,32,10.011,10.011,0,0,0,41,22Zm7.674,7.756a4.108,4.108,0,0,0-2.583-.487,3.686,3.686,0,0,0-1.648.73,3.978,3.978,0,0,0-2.952-1.949,3,3,0,0,1-.064-4.028A8.007,8.007,0,0,1,48.674,29.756ZM41,34a2,2,0,1,1,2-2A2,2,0,0,1,41,34Zm-2.031-9.729a4.864,4.864,0,0,0,.352,4.111,3.986,3.986,0,0,0-2.288,3.29,2.332,2.332,0,0,1-1.445,1.086,3.491,3.491,0,0,1-2.567-1.166A8,8,0,0,1,38.969,24.271Zm-5.64,9.983a4.335,4.335,0,0,0,2,.524,3.563,3.563,0,0,0,.583-.047A3.686,3.686,0,0,0,37.557,34a3.981,3.981,0,0,0,3.033,1.958,2.85,2.85,0,0,1,.959,1.762,3.144,3.144,0,0,1-.98,2.257A8.006,8.006,0,0,1,33.329,34.254ZM43.152,39.7a4.3,4.3,0,0,0,.39-2.142,4.364,4.364,0,0,0-.716-2.018,3.981,3.981,0,0,0,2.141-3.21,2.332,2.332,0,0,1,1.445-1.086,3.46,3.46,0,0,1,2.567,1.166A8,8,0,0,1,43.152,39.7Z"/><path d="M41,18v2A12.074,12.074,0,0,1,52.858,30.152l1.977-.3A13.916,13.916,0,0,0,41,18Z"/><path d="M61,21H58a7.009,7.009,0,0,0-7-7V10h2v2h2V10a2,2,0,0,0-2-2H51V7a3,3,0,0,0-3-3H34a3,3,0,0,0-3,3v7H26L2,15.044v5.912L26,22h5.213a13.955,13.955,0,0,0,.2,20.174l-2.119,2.119,1.414,1.414,2.259-2.259a13.876,13.876,0,0,0,16.056-.012l2.271,2.271,1.414-1.414L50.574,42.16A13.953,13.953,0,0,0,54.845,34H57a1,1,0,0,0,1-1V29h2V45a3,3,0,0,1-3,3H43a3,3,0,0,0,0,6H59a1,1,0,0,1,0,2H27V55a1,1,0,0,0-1-1H19v2h2v2H19v2h7a1,1,0,0,0,1-1V58H59a3,3,0,0,0,0-6H43a1,1,0,0,1,0-2H57a5.006,5.006,0,0,0,5-5V22A1,1,0,0,0,61,21ZM25,58H23V56h2ZM45,14H37V10h8Zm2-4h2v4H47ZM33,7a1,1,0,0,1,1-1H48a1,1,0,0,1,1,1V8H33Zm0,3h2v4H33ZM4,16.956l5-.227V18h2V16.638l2-.091V18h2V16.456l2-.091V18h2V16.274l5-.227v3.906L4,19.044ZM56,32H53.949a1,1,0,0,0-1,.924A11.993,11.993,0,1,1,34.626,21.847,1,1,0,0,0,34.094,20H26V16H51a5.006,5.006,0,0,1,5,5Zm2-9h2v4H58Z"/><rect x="37" y="18" width="2" height="2"/></g></svg>
