<svg id="Capa_1" enable-background="new 0 0 512 512" height="512" viewBox="0 0 512 512" width="512" xmlns="http://www.w3.org/2000/svg"><g><path d="m463.537 258.492-15.972-21.557c-2.465-3.327-7.16-4.025-10.486-1.56s-4.025 7.159-1.561 10.485l10.998 14.843c-4.684 2.014-8.785 5.129-11.976 9.02l-120.129-162.129c4.58-2.228 8.544-5.531 11.56-9.582l90.297 121.867c1.471 1.985 3.735 3.034 6.029 3.034 1.551 0 3.116-.48 4.457-1.474 3.326-2.465 4.025-7.159 1.561-10.485l-96.126-129.732c-.017-.023-.037-.043-.054-.065.039-.642.065-1.288.065-1.939 0-17.389-14.147-31.536-31.536-31.536-7.514 0-14.42 2.646-19.843 7.049h-74.37v-32.243c0-12.4-10.089-22.488-22.488-22.488h-69.13c-12.4 0-22.488 10.088-22.488 22.488v83.7c0 4.712-2.105 9.11-5.775 12.066l-21.736 17.503c-3.224 2.596-3.733 7.315-1.137 10.54 1.482 1.839 3.652 2.795 5.844 2.795 1.65 0 3.311-.543 4.697-1.658l21.736-17.503c7.222-5.817 11.364-14.47 11.364-23.743v-83.7c0-4.134 3.363-7.496 7.496-7.496h69.13c4.134 0 7.496 3.363 7.496 7.496v24.23c-6.527-5.059-14.708-8.081-23.586-8.081-21.273 0-38.58 17.307-38.58 38.581s17.307 38.581 38.58 38.581c8.897 0 17.094-3.035 23.628-8.114.421 8.703 4.491 16.745 11.323 22.247l40.047 32.246c12.332 9.93 19.406 24.706 19.406 40.54v35.174c0 1.378-1.121 2.499-2.499 2.499h-220.757c-1.378 0-2.499-1.121-2.499-2.499v-35.176c0-12.884 4.748-25.252 13.368-34.827 2.77-3.077 2.521-7.816-.555-10.586-3.075-2.768-7.814-2.523-10.587.555-11.103 12.332-17.218 28.263-17.218 44.857v35.176c0 9.644 7.847 17.491 17.491 17.491h67.704c6.534 17.688 23.498 29.705 42.674 29.705 19.167 0 36.138-12.02 42.673-29.705h67.704c9.644 0 17.491-7.846 17.491-17.491v-35.174c0-20.394-9.11-39.427-24.995-52.217l-40.047-32.245c-3.671-2.956-5.776-7.355-5.776-12.067v-6.482h70.27c5.246 6.122 12.789 10.213 21.283 10.926l129.567 174.868s-139.234 104.722-139.314 104.788h-17.975c-5.361 0-10.352 2.407-13.69 6.605l-25.557 32.141c-2.872 3.611-4.453 8.14-4.453 12.753v8.152h-20.027v-18.803c0-7.991-6.501-14.492-14.492-14.492h-45.755c-7.991 0-14.492 6.501-14.492 14.492v18.803h-7.677c-9.644 0-17.491 7.846-17.491 17.491v27.08c0 9.644 7.847 17.491 17.491 17.491h160.898c4.14 0 7.496-3.356 7.496-7.496s-3.356-7.496-7.496-7.496h-160.898c-1.378 0-2.499-1.121-2.499-2.499v-27.08c0-1.378 1.121-2.499 2.499-2.499h258.347c1.378 0 2.499 1.121 2.499 2.499v27.08c0 1.378-1.121 2.499-2.499 2.499h-62.163c-4.14 0-7.496 3.356-7.496 7.496s3.356 7.496 7.496 7.496h62.163c9.644 0 17.491-7.846 17.491-17.491v-27.08c0-9.644-7.846-17.491-17.491-17.491h-15.385v-8.152c0-4.611-1.58-9.14-4.452-12.753l-19.125-24.051 111.678-83.986c1.225.145 2.468.228 3.731.228 17.389 0 31.536-14.147 31.536-31.536.001-15.826-11.717-28.962-26.931-31.197zm-314.137 11.604c-10.872 0-20.665-5.77-26.085-14.713h52.169c-5.422 8.942-15.218 14.713-26.084 14.713zm18.472-169.289c-13.007 0-23.588-10.582-23.588-23.589s10.581-23.589 23.588-23.589 23.589 10.582 23.589 23.589-10.582 23.589-23.589 23.589zm38.579-16.093v-14.992h64.141c-.949 2.998-1.463 6.187-1.463 9.495 0 1.876.174 3.711.49 5.497zm77.669-5.497c0-9.123 7.422-16.544 16.544-16.544s16.544 7.421 16.544 16.544-7.422 16.544-16.544 16.544-16.544-7.421-16.544-16.544zm-137.313 352.418h44.756v18.303h-44.756zm205.301 10.151v8.152h-110.534v-8.152c0-1.238.425-2.453 1.195-3.422l25.557-32.14c.477-.6 1.19-.944 1.956-.944h53.118c.766 0 1.479.344 1.956.944l25.557 32.139c.771.97 1.195 2.185 1.195 3.423zm-18.445-48.147c-2.95-2.148-6.508-3.351-10.263-3.351h-10.227l116.897-87.91c2.058 4.662 5.211 8.734 9.135 11.889zm125.269-87.406c-9.122 0-16.544-7.421-16.544-16.544s7.422-16.544 16.544-16.544 16.544 7.421 16.544 16.544c.001 9.122-7.421 16.544-16.544 16.544z"/><path d="m156.896 336.185v-22.738c0-4.14-3.356-7.496-7.496-7.496s-7.496 3.356-7.496 7.496v22.738c0 4.14 3.356 7.496 7.496 7.496 4.141 0 7.496-3.356 7.496-7.496z"/><path d="m91.04 291.684c-3.215-2.611-7.935-2.12-10.545 1.093l-14.978 18.443c-2.61 3.214-2.12 7.935 1.093 10.544 1.39 1.129 3.061 1.678 4.721 1.678 2.181 0 4.342-.947 5.824-2.771l14.978-18.443c2.61-3.214 2.12-7.935-1.093-10.544z"/><path d="m227.264 323.442c1.66 0 3.331-.549 4.721-1.678 3.213-2.609 3.703-7.331 1.093-10.544l-14.978-18.443c-2.61-3.213-7.33-3.703-10.545-1.093-3.213 2.609-3.703 7.331-1.093 10.544l14.978 18.443c1.482 1.824 3.643 2.771 5.824 2.771z"/></g></svg>