<svg id="Capa_1" enable-background="new 0 0 512 512" height="512" viewBox="0 0 512 512" width="512" xmlns="http://www.w3.org/2000/svg"><g><g><path d="m210 134.479h132.667c4.143 0 7.5-3.357 7.5-7.5s-3.357-7.5-7.5-7.5h-132.667c-4.143 0-7.5 3.357-7.5 7.5s3.357 7.5 7.5 7.5z"/><path d="m169.333 181.852h173.334c4.143 0 7.5-3.357 7.5-7.5s-3.357-7.5-7.5-7.5h-173.334c-4.143 0-7.5 3.357-7.5 7.5s3.357 7.5 7.5 7.5z"/><path d="m169.333 229.223h173.334c4.143 0 7.5-3.357 7.5-7.5s-3.357-7.5-7.5-7.5h-173.334c-4.143 0-7.5 3.357-7.5 7.5s3.357 7.5 7.5 7.5z"/><path d="m479.369 272.128h-40.595v-131.8c0-14.654-11.922-26.576-26.576-26.576h-22.42v-31.098c0-14.487-11.787-26.274-26.274-26.274h-215.008c-14.487 0-26.274 11.787-26.274 26.274v31.098h-22.42c-14.654 0-26.576 11.922-26.576 26.576v131.8h-40.595c-17.993 0-32.631 14.638-32.631 32.631v39.937c0 4.143 3.357 7.5 7.5 7.5s7.5-3.357 7.5-7.5v-39.937c0-9.722 7.909-17.631 17.631-17.631h446.738c9.722 0 17.631 7.909 17.631 17.631v118.231c0 9.721-7.909 17.63-17.631 17.63h-65.725v-36.828c0-13.146-10.695-23.841-23.841-23.841h-267.607c-13.146 0-23.841 10.695-23.841 23.841v36.828h-65.724c-9.722 0-17.631-7.909-17.631-17.63v-43.234c0-4.143-3.357-7.5-7.5-7.5s-7.5 3.357-7.5 7.5v43.234c0 17.992 14.638 32.63 32.631 32.63h446.738c17.993 0 32.631-14.638 32.631-32.63v-118.231c0-17.993-14.638-32.631-32.631-32.631zm-342.147-189.474c0-6.217 5.058-11.274 11.274-11.274h215.008c6.217 0 11.274 5.058 11.274 11.274v100.566c0 4.143 3.357 7.5 7.5 7.5s7.5-3.357 7.5-7.5v-54.468h22.42c6.383 0 11.576 5.193 11.576 11.576v131.8h-33.996v-53.955c0-4.143-3.357-7.5-7.5-7.5s-7.5 3.357-7.5 7.5v53.955h-237.556zm-48.996 57.674c0-6.383 5.193-11.576 11.576-11.576h22.42v143.376h-33.996zm25.129 263.464c0-4.875 3.966-8.841 8.841-8.841h267.607c4.875 0 8.841 3.966 8.841 8.841v36.828h-285.289z"/><path d="m480.667 331c0-15.166-12.339-27.505-27.505-27.505s-27.505 12.339-27.505 27.505 12.339 27.505 27.505 27.505 27.505-12.339 27.505-27.505zm-40.01 0c0-6.896 5.609-12.505 12.505-12.505s12.505 5.609 12.505 12.505-5.609 12.505-12.505 12.505-12.505-5.609-12.505-12.505z"/></g></g></svg>