<svg id="Capa_1" enable-background="new 0 0 511 511" height="512" viewBox="0 0 511 511" width="512" xmlns="http://www.w3.org/2000/svg"><path id="XMLID_973_" d="m478.602 80.278 29.619-80.278h-505.442l29.619 80.278v400.722h-19.575v30h117.564v-23h250.225v23h116.729v-30h-18.739zm-237.724 377.722h-110.49v-29h110.49zm139.734-59h-109.734v-29h109.734zm-39.867-59v-37.556h-30v37.556h-39.867v-106h109.734v106zm39.867-136h-39.867v-38h-30v38h-39.867v-111.4h109.734zm-139.734 0h-40.623v-38h-30v38h-39.867v-111.4h110.49zm-110.49 30h110.49v106h-40.623v-37.556h-30v37.556h-39.867zm0 136h110.49v29h-110.49zm140.49 88v-29h109.734v29zm177.724-383.079v406.079h-37.989v-418.4h-310.225v418.4h-37.99v-406.079l-16.574-44.921h419.352z"/></svg>