<?xml version="1.0" encoding="iso-8859-1"?>
<!-- Generator: Adobe Illustrator 19.0.0, SVG Export Plug-In . SVG Version: 6.00 Build 0)  -->
<svg version="1.1" id="Capa_1" xmlns="http://www.w3.org/2000/svg" xmlns:xlink="http://www.w3.org/1999/xlink" x="0px" y="0px"
	 viewBox="0 0 512 512" style="enable-background:new 0 0 512 512;" xml:space="preserve">
<g>
	<g>
		<path d="M347.959,102.579c-5.523,0-10,4.478-10,10v29.098h-8.586c-5.523,0-10,4.478-10,10c0,5.522,4.477,10,10,10h18.586
			c5.523,0,10-4.478,10-10v-39.098C357.959,107.057,353.482,102.579,347.959,102.579z"/>
	</g>
</g>
<g>
	<g>
		<path d="M502,222H389.731c23.035-14.11,38.438-39.511,38.438-68.446c0-11.284-2.354-22.025-6.578-31.775
			c0.088-0.068,0.178-0.129,0.264-0.201c10.107-8.439,14.366-22.086,10.849-34.765c-2.397-8.645-8.018-15.839-15.826-20.257
			c-7.809-4.418-16.87-5.531-25.515-3.133c-7.709,2.139-14.416,6.974-18.882,13.615c-0.028,0.042-0.049,0.085-0.077,0.127
			c-7.712-2.474-15.924-3.823-24.447-3.823c-9.159,0-17.956,1.564-26.161,4.404c-0.192-0.385-0.401-0.765-0.648-1.132
			c-4.34-6.452-10.854-11.149-18.343-13.227c-8.398-2.326-17.201-1.246-24.787,3.044c-7.585,4.292-13.045,11.28-15.375,19.679
			c-3.417,12.316,0.721,25.573,10.539,33.772c0.483,0.404,0.994,0.752,1.524,1.049c-4.46,9.974-6.961,21.008-6.961,32.622
			c0,28.935,15.404,54.336,38.439,68.446H201.443l23.418-93.572c0.748-2.987,0.077-6.153-1.818-8.581
			c-1.895-2.428-4.803-3.846-7.883-3.846h-13.594v-13.169c0.297-0.236,0.585-0.486,0.86-0.76l6.667-6.667
			c3.905-3.905,3.905-10.237,0-14.143c-2.069-2.068-4.818-3.029-7.527-2.906V62c0-34.187-27.813-62-62-62
			c-20.86,0-39.333,10.366-50.576,26.206c-3.854-2.371-8.963-1.897-12.302,1.441c-3.905,3.906-3.905,10.237,0,14.143l3.255,3.254
			C78.407,50.438,77.566,56.121,77.566,62v54H64c-3.08,0-5.988,1.419-7.883,3.847c-1.895,2.428-2.566,5.594-1.818,8.581L77.717,222
			H10c-5.523,0-10,4.478-10,10v144c0,5.522,4.477,10,10,10h25.5v116c0,5.522,4.477,10,10,10h37c5.523,0,10-4.478,10-10V386h40.563
			c5.523,0,10-4.478,10-10c0-5.522-4.477-10-10-10H20V242h226.127v124H221c-5.523,0-10,4.478-10,10c0,5.522,4.477,10,10,10h198.5
			v116c0,5.522,4.477,10,10,10h37c5.523,0,10-4.478,10-10V386H502c5.523,0,10-4.478,10-10V232C512,226.478,507.523,222,502,222z
			 M55.5,386h17v106h-17V386z M139.566,20c23.159,0,42,18.841,42,42v54h-84c0,0,0-54,0-54C97.566,38.841,116.407,20,139.566,20z
			 M98.334,222l-21.523-86h125.538l-21.523,86H98.334z M396.709,82.696c3.497-0.971,7.163-0.52,10.321,1.267
			c3.159,1.787,5.432,4.697,6.402,8.195c1.159,4.178,0.227,8.618-2.372,11.968c-5.605-7.14-12.39-13.306-20.064-18.206
			C392.352,84.625,394.211,83.389,396.709,82.696z M281.917,91.456c0.901-3.251,3.015-5.956,5.951-7.617
			c2.936-1.66,6.342-2.08,9.593-1.178c2.984,0.827,4.975,2.488,6.263,4.026c-7.052,4.681-13.316,10.449-18.569,17.059
			C281.971,100.549,280.699,95.849,281.917,91.456z M287.748,153.554c0-33.2,27.011-60.211,60.211-60.211
			s60.211,27.011,60.211,60.211c0,33.2-27.011,60.211-60.211,60.211C314.758,213.765,287.748,186.754,287.748,153.554z M329.203,366
			h-9.052c-7.719,0-14-6.28-14-14c0-7.72,6.28-14,14-14h9.052c-1.939,4.273-3.029,9.01-3.029,14S327.263,361.727,329.203,366z
			 M360.175,366c-7.72,0-14-6.28-14-14c0-7.72,6.28-14,14-14h76.438h14v28H429.5H360.175z M330.151,318v-28h57.374
			c7.719,0,14,6.28,14,14c0,7.72-6.28,14-14,14H330.151z M418.496,290h18.118c7.72,0,14,6.28,14,14c0,7.72-6.281,14-14,14h-18.118
			c1.939-4.273,3.028-9.01,3.028-14S420.435,294.273,418.496,290z M456.5,492h-17V386h17V492z M492,366h-21.386v-38
			c0-3.274-1.581-6.172-4.013-7.996c2.558-4.773,4.013-10.221,4.013-16.004c0-18.748-15.252-34-34-34H320.151
			c-5.523,0-10,4.478-10,10v39.503c-13.882,4.281-24,17.228-24,32.497c0,4.99,1.089,9.727,3.029,14h-23.053V242H492V366z"/>
	</g>
</g>
<g>
	<g>
		<path d="M180.07,368.93c-1.86-1.86-4.44-2.93-7.07-2.93s-5.21,1.069-7.07,2.93c-1.86,1.86-2.93,4.44-2.93,7.07
			s1.07,5.21,2.93,7.069c1.86,1.86,4.44,2.931,7.07,2.931s5.21-1.07,7.07-2.931c1.86-1.859,2.93-4.439,2.93-7.069
			S181.93,370.79,180.07,368.93z"/>
	</g>
</g>
<g>
	<g>
		<path d="M173,294h-45.333c-5.523,0-10,4.478-10,10c0,5.522,4.477,10,10,10H173c5.523,0,10-4.478,10-10
			C183,298.478,178.523,294,173,294z"/>
	</g>
</g>
<g>
	<g>
		<path d="M99.68,296.93c-1.87-1.86-4.44-2.93-7.08-2.93c-2.63,0-5.21,1.069-7.07,2.93c-1.86,1.86-2.92,4.44-2.92,7.07
			s1.06,5.21,2.92,7.069c1.86,1.86,4.44,2.931,7.07,2.931c2.64,0,5.21-1.07,7.08-2.931c1.86-1.859,2.92-4.439,2.92-7.069
			S101.54,298.79,99.68,296.93z"/>
	</g>
</g>
<g>
	<g>
		<path d="M153.594,48.597c-3.904-3.908-10.236-3.909-14.142-0.003l-2.667,2.666c-3.906,3.904-3.907,10.236-0.002,14.142
			c1.953,1.954,4.512,2.931,7.072,2.931c2.559,0,5.117-0.976,7.07-2.928l2.667-2.666C157.498,58.835,157.499,52.503,153.594,48.597z
			"/>
	</g>
</g>
<g>
	<g>
		<path d="M128.624,75.711l-2.786-2.787c-3.905-3.904-10.237-3.904-14.143,0c-3.905,3.905-3.905,10.237,0,14.143l2.787,2.787
			c1.953,1.952,4.512,2.929,7.071,2.929c2.559,0,5.119-0.977,7.071-2.929C132.529,85.949,132.529,79.617,128.624,75.711z"/>
	</g>
</g>
<g>
	<g>
		<path d="M164.843,87.93c-3.905-3.906-10.236-3.905-14.141-0.001l-3.334,3.333c-3.905,3.904-3.906,10.236-0.001,14.142
			c1.953,1.953,4.512,2.93,7.072,2.93c2.559,0,5.118-0.977,7.07-2.929l3.333-3.333C168.748,98.168,168.748,91.836,164.843,87.93z"/>
	</g>
</g>
<g>
</g>
<g>
</g>
<g>
</g>
<g>
</g>
<g>
</g>
<g>
</g>
<g>
</g>
<g>
</g>
<g>
</g>
<g>
</g>
<g>
</g>
<g>
</g>
<g>
</g>
<g>
</g>
<g>
</g>
</svg>
