<?xml version="1.0" encoding="iso-8859-1"?>
<!-- Generator: Adobe Illustrator 19.0.0, SVG Export Plug-In . SVG Version: 6.00 Build 0)  -->
<svg version="1.1" id="Capa_1" xmlns="http://www.w3.org/2000/svg" xmlns:xlink="http://www.w3.org/1999/xlink" x="0px" y="0px"
	 viewBox="0 0 511.941 511.941" style="enable-background:new 0 0 511.941 511.941;" xml:space="preserve">
<g>
	<g>
		<path d="M244.215,361.96h-0.086c-2.203,0-3.953,1.789-3.953,3.998c0,2.211,1.829,4,4.039,4c2.202,0,3.999-1.789,4-4
			C248.215,363.749,246.418,361.96,244.215,361.96z"/>
	</g>
</g>
<g>
	<g>
		<path d="M244.215,385.956h-0.086c-2.203,0-3.953,1.789-3.953,4s1.829,4,4.039,4c2.202,0,4-1.789,4-4
			S246.418,385.956,244.215,385.956z"/>
	</g>
</g>
<g>
	<g>
		<path d="M268.211,361.96h-0.086c-2.202,0-3.952,1.789-3.952,3.998c0,2.211,1.828,4,4.038,4c2.203,0,4-1.789,4-4
			C272.211,363.749,270.414,361.96,268.211,361.96z"/>
	</g>
</g>
<g>
	<g>
		<path d="M256.213,297.966h-0.086c-2.203,0-3.953,1.789-3.953,4s1.828,4,4.039,4c2.203,0,4-1.789,4-4
			S258.416,297.966,256.213,297.966z"/>
	</g>
</g>
<g>
	<g>
		<path d="M256.213,185.983h-0.086c-2.203,0-3.953,1.789-3.953,4s1.828,4,4.039,4c2.203,0,4-1.789,4-4
			S258.416,185.983,256.213,185.983z"/>
	</g>
</g>
<g>
	<g>
		<path d="M238.215,190.803h-0.086c-2.203,0-3.953,1.789-3.953,4s1.828,4,4.039,4c2.203,0,4-1.789,4-4
			S240.418,190.803,238.215,190.803z"/>
	</g>
</g>
<g>
	<g>
		<path d="M225.044,203.981h-0.085c-2.203,0-3.953,1.789-3.953,4s1.829,4,4.039,4c2.202,0,3.999-1.789,3.999-4
			S227.247,203.981,225.044,203.981z"/>
	</g>
</g>
<g>
	<g>
		<path d="M220.217,221.979h-0.086c-2.202,0-3.952,1.789-3.952,4c0,2.21,1.828,3.999,4.038,3.999c2.203,0,4-1.788,4-3.999
			S222.42,221.979,220.217,221.979z"/>
	</g>
</g>
<g>
	<g>
		<path d="M292.209,221.979h-0.086c-2.203,0-3.953,1.789-3.953,4c0,2.21,1.828,3.999,4.039,3.999c2.203,0,3.999-1.788,3.999-3.999
			S294.412,221.979,292.209,221.979z"/>
	</g>
</g>
<g>
	<g>
		<path d="M287.397,203.973h-0.086c-2.203,0-3.952,1.789-3.952,4s1.827,4,4.038,4c2.203,0,4-1.789,4-4
			S289.6,203.973,287.397,203.973z"/>
	</g>
</g>
<g>
	<g>
		<path d="M274.227,190.803h-0.086c-2.203,0-3.953,1.789-3.953,4s1.828,4,4.039,4c2.203,0,4-1.789,4-4
			S276.43,190.803,274.227,190.803z"/>
	</g>
</g>
<g>
	<g>
		<path d="M268.211,385.956h-0.086c-2.202,0-3.952,1.789-3.952,4s1.828,4,4.038,4c2.203,0,4-1.789,4-4
			S270.414,385.956,268.211,385.956z"/>
	</g>
</g>
<g>
	<g>
		<path d="M256.213,373.958h-0.086c-2.203,0-3.953,1.789-3.953,4s1.828,4,4.039,4c2.203,0,4-1.789,4-4
			S258.416,373.958,256.213,373.958z"/>
	</g>
</g>
<g>
	<g>
		<path d="M355.96,161.986H155.983c-2.211,0-4,1.789-4,4v287.963c0,2.211,1.789,4,4,4h199.976c2.211,0,4-1.79,4.001-4.001V165.986
			C359.96,163.775,358.171,161.986,355.96,161.986z M351.961,449.95H159.982V169.985h191.979V449.95z"/>
	</g>
</g>
<g>
	<g>
		<path d="M28.24,337.962h-0.086c-2.203,0-3.953,1.789-3.953,4s1.828,4,4.039,4c2.202,0,3.999-1.789,3.999-4
			S30.443,337.962,28.24,337.962z"/>
	</g>
</g>
<g>
	<g>
		<path d="M28.24,425.952h-0.086c-2.203,0-3.953,1.789-3.953,4s1.828,4,4.039,4c2.202,0,3.999-1.789,3.999-4
			S30.443,425.952,28.24,425.952z"/>
	</g>
</g>
<g>
	<g>
		<path d="M116.229,337.962h-0.086c-2.203,0-3.953,1.789-3.953,4s1.829,4,4.039,4c2.203,0,4-1.789,4-4
			S118.432,337.962,116.229,337.962z"/>
	</g>
</g>
<g>
	<g>
		<path d="M64.235,281.968h-0.086c-2.203,0-3.953,1.789-3.953,4s1.829,4,4.039,4c2.203,0,4-1.789,4-4S66.438,281.968,64.235,281.968
			z"/>
	</g>
</g>
<g>
	<g>
		<path d="M80.233,281.968h-0.086c-2.203,0-3.953,1.789-3.953,4s1.829,4,4.039,4c2.203,0,4-1.789,4-4S82.436,281.968,80.233,281.968
			z"/>
	</g>
</g>
<g>
	<g>
		<path d="M80.233,297.966h-0.086c-2.203,0-3.953,1.789-3.953,4s1.829,4,4.039,4c2.203,0,4-1.789,4-4S82.436,297.966,80.233,297.966
			z"/>
	</g>
</g>
<g>
	<g>
		<path d="M72.234,289.968h-0.086c-2.203,0-3.953,1.789-3.953,4s1.829,3.998,4.039,3.998c2.203,0,4-1.787,4-3.998
			S74.437,289.968,72.234,289.968z"/>
	</g>
</g>
<g>
	<g>
		<path d="M64.235,297.966h-0.086c-2.203,0-3.953,1.789-3.953,4s1.829,4,4.039,4c2.203,0,4-1.789,4-4S66.438,297.966,64.235,297.966
			z"/>
	</g>
</g>
<g>
	<g>
		<path d="M116.229,425.952h-0.086c-2.203,0-3.953,1.789-3.953,4s1.829,4,4.039,4c2.203,0,4-1.789,4-4
			S118.432,425.952,116.229,425.952z"/>
	</g>
</g>
<g>
	<g>
		<path d="M139.984,241.977H4c-2.211,0-4,1.79-4,4v207.972c0,2.211,1.79,4,4,4h135.984c2.211,0,4-1.79,4-4V245.977
			C143.984,243.766,142.194,241.977,139.984,241.977z M135.984,449.95H7.999V249.976h127.985V449.95z"/>
	</g>
</g>
<g>
	<g>
		<path d="M71.992,337.962c-26.466,0-47.995,21.529-47.995,47.994c0,26.467,21.53,47.996,47.995,47.996
			c26.466,0,47.995-21.529,47.995-47.996C119.987,359.491,98.458,337.962,71.992,337.962z M71.992,425.952
			c-22.053,0-39.996-17.943-39.996-39.996c0-22.051,17.944-39.994,39.996-39.994s39.996,17.944,39.996,39.994
			C111.988,408.009,94.045,425.952,71.992,425.952z"/>
	</g>
</g>
<g>
	<g>
		<path d="M71.992,369.958c-8.819,0-15.998,7.18-15.998,15.998c0,8.82,7.179,15.998,15.998,15.998
			c8.819,0,15.999-7.177,15.999-15.998C87.991,377.138,80.811,369.958,71.992,369.958z M71.992,393.956
			c-4.414,0-7.999-3.586-7.999-8c0-4.412,3.585-7.998,7.999-7.998s7.999,3.586,7.999,7.998
			C79.991,390.37,76.406,393.956,71.992,393.956z"/>
	</g>
</g>
<g>
	<g>
		<path d="M71.992,265.97c-15.436,0-27.997,12.563-27.997,27.998s12.561,27.996,27.997,27.996c15.436,0,27.997-12.56,27.997-27.996
			S87.428,265.97,71.992,265.97z M71.992,313.966c-11.03,0-19.998-8.969-19.998-19.998c0-11.031,8.968-19.998,19.998-19.998
			c11.03,0,19.998,8.967,19.998,19.998C91.99,304.997,83.022,313.966,71.992,313.966z"/>
	</g>
</g>
<g>
	<g>
		<path d="M396.198,337.962h-0.086c-2.203,0-3.953,1.789-3.953,4s1.828,4,4.039,4c2.202,0,3.999-1.789,3.999-4
			S398.4,337.962,396.198,337.962z"/>
	</g>
</g>
<g>
	<g>
		<path d="M396.198,425.952h-0.086c-2.203,0-3.953,1.789-3.953,4s1.828,4,4.039,4c2.202,0,3.999-1.789,3.999-4
			S398.4,425.952,396.198,425.952z"/>
	</g>
</g>
<g>
	<g>
		<path d="M484.187,337.962h-0.086c-2.202,0-3.952,1.789-3.952,4s1.828,4,4.038,4c2.203,0,4-1.789,4-4
			S486.39,337.962,484.187,337.962z"/>
	</g>
</g>
<g>
	<g>
		<path d="M432.193,281.968h-0.086c-2.202,0-3.952,1.789-3.952,4s1.828,4,4.038,4c2.203,0,4-1.789,4-4
			S434.396,281.968,432.193,281.968z"/>
	</g>
</g>
<g>
	<g>
		<path d="M448.192,281.968h-0.086c-2.203,0-3.953,1.789-3.953,4s1.828,4,4.039,4c2.202,0,3.999-1.789,3.999-4
			S450.394,281.968,448.192,281.968z"/>
	</g>
</g>
<g>
	<g>
		<path d="M448.192,297.966h-0.086c-2.203,0-3.953,1.789-3.953,4s1.828,4,4.039,4c2.202,0,3.999-1.789,3.999-4
			S450.394,297.966,448.192,297.966z"/>
	</g>
</g>
<g>
	<g>
		<path d="M440.192,289.968h-0.086c-2.202,0-3.952,1.789-3.952,4s1.828,3.998,4.038,3.998c2.203,0,4-1.787,4-3.998
			S442.395,289.968,440.192,289.968z"/>
	</g>
</g>
<g>
	<g>
		<path d="M432.193,297.966h-0.086c-2.202,0-3.952,1.789-3.952,4s1.828,4,4.038,4c2.203,0,4-1.789,4-4
			S434.396,297.966,432.193,297.966z"/>
	</g>
</g>
<g>
	<g>
		<path d="M484.187,425.952h-0.086c-2.202,0-3.952,1.789-3.952,4s1.828,4,4.038,4c2.203,0,4-1.789,4-4
			S486.39,425.952,484.187,425.952z"/>
	</g>
</g>
<g>
	<g>
		<path d="M507.941,241.977H371.957c-2.21,0-3.999,1.79-3.999,4v207.972c0,2.211,1.789,4,3.999,4h135.985c2.211,0,4-1.79,3.999-4
			V245.977C511.941,243.766,510.152,241.977,507.941,241.977z M503.942,449.95H375.957V249.976h127.985V449.95z"/>
	</g>
</g>
<g>
	<g>
		<path d="M439.95,337.962c-26.465,0-47.994,21.529-47.994,47.994c0,26.467,21.529,47.996,47.994,47.996
			c26.465,0,47.995-21.529,47.995-47.996C487.945,359.491,466.416,337.962,439.95,337.962z M439.95,425.952
			c-22.052,0-39.995-17.943-39.995-39.996c0-22.051,17.943-39.994,39.995-39.994s39.996,17.944,39.996,39.994
			C479.946,408.009,462.003,425.952,439.95,425.952z"/>
	</g>
</g>
<g>
	<g>
		<path d="M439.95,369.958c-8.818,0-15.998,7.18-15.998,15.998c0,8.82,7.18,15.998,15.998,15.998c8.82,0,15.998-7.177,15.998-15.998
			C455.948,377.138,448.77,369.958,439.95,369.958z M439.95,393.956c-4.413,0-7.998-3.586-7.998-8c0-4.412,3.585-7.998,7.998-7.998
			c4.414,0,8,3.586,8,7.998C447.95,390.37,444.364,393.956,439.95,393.956z"/>
	</g>
</g>
<g>
	<g>
		<path d="M439.95,265.97c-15.436,0-27.996,12.563-27.996,27.998s12.56,27.996,27.996,27.996c15.436,0,27.997-12.56,27.997-27.996
			S455.387,265.97,439.95,265.97z M439.95,313.966c-11.029,0-19.997-8.969-19.997-19.998c0-11.031,8.968-19.998,19.997-19.998
			c11.03,0,19.998,8.967,19.998,19.998C459.948,304.997,450.98,313.966,439.95,313.966z"/>
	</g>
</g>
<g>
	<g>
		<path d="M11.999,449.951c-2.211,0-4,1.787-4,3.998v4c0,2.211,1.79,4,4,4c2.21,0,3.999-1.79,4-4v-4
			C15.999,451.738,14.21,449.951,11.999,449.951z"/>
	</g>
</g>
<g>
	<g>
		<path d="M131.985,449.951c-2.211,0-4,1.787-4,3.998v4c0,2.211,1.79,4,4,4c2.211,0,4-1.79,4-4v-4
			C135.985,451.738,134.196,449.951,131.985,449.951z"/>
	</g>
</g>
<g>
	<g>
		<path d="M163.982,449.951c-2.211,0-4,1.787-4,3.998v4c0,2.211,1.789,4,4,4c2.21,0,3.999-1.79,3.999-4v-4
			C167.981,451.738,166.192,449.951,163.982,449.951z"/>
	</g>
</g>
<g>
	<g>
		<path d="M379.957,449.951c-2.211,0-4,1.787-4,3.998v4c0,2.211,1.789,4,4,4c2.21,0,3.999-1.79,3.999-4v-4
			C383.956,451.738,382.167,449.951,379.957,449.951z"/>
	</g>
</g>
<g>
	<g>
		<path d="M347.96,449.951c-2.21,0-3.999,1.787-3.999,3.998v4c0,2.211,1.789,4,3.999,4c2.211,0,4-1.79,4-4v-4
			C351.96,451.738,350.171,449.951,347.96,449.951z"/>
	</g>
</g>
<g>
	<g>
		<path d="M499.944,449.951c-2.211,0-4,1.787-4,3.998v4c0,2.211,1.789,4,4,4c2.21,0,3.999-1.79,3.999-4v-4
			C503.943,451.738,502.154,449.951,499.944,449.951z"/>
	</g>
</g>
<g>
	<g>
		<path d="M255.971,321.964c-30.872,0-55.994,25.123-55.994,55.994c0,30.871,25.122,55.994,55.994,55.994
			c30.871,0,55.994-25.123,55.994-55.994C311.965,347.087,286.842,321.964,255.971,321.964z M255.971,425.952
			c-26.466,0-47.995-21.529-47.995-47.994c0-26.467,21.529-47.994,47.995-47.994s47.994,21.527,47.994,47.994
			C303.965,404.423,282.437,425.952,255.971,425.952z"/>
	</g>
</g>
<g>
	<g>
		<path d="M255.971,337.962c-22.052,0-39.995,17.943-39.995,39.996c0,22.051,17.943,39.994,39.995,39.994
			c22.053,0,39.995-17.943,39.995-39.994C295.966,355.905,278.024,337.962,255.971,337.962z M255.971,409.954
			c-17.646,0-31.996-14.35-31.996-31.996s14.35-31.996,31.996-31.996s31.996,14.35,31.996,31.996S273.617,409.954,255.971,409.954z"
			/>
	</g>
</g>
<g>
	<g>
		<path d="M255.971,201.981c-13.233,0-23.997,10.765-23.997,23.998c0,13.232,10.764,23.997,23.997,23.997
			c13.232,0,23.997-10.764,23.997-23.997C279.968,212.745,269.203,201.981,255.971,201.981z M255.971,241.977
			c-8.819,0-15.998-7.175-15.998-15.998s7.179-15.998,15.998-15.998c8.819,0,15.998,7.175,15.998,15.998
			S264.79,241.977,255.971,241.977z"/>
	</g>
</g>
<g>
	<g>
		<path d="M255.971,197.981c-2.211,0-4,1.79-4,4v4c0,2.211,1.789,4,4,4c2.211,0,4-1.789,4-4v-4
			C259.971,199.77,258.182,197.981,255.971,197.981z"/>
	</g>
</g>
<g>
	<g>
		<path d="M255.971,261.976c-6.617,0-11.999,5.377-11.999,11.994c0,6.615,5.383,11.998,11.999,11.998
			c6.616,0,11.998-5.383,11.998-11.998C267.969,267.353,262.588,261.976,255.971,261.976z M255.971,277.97c-2.204,0-4-1.797-4-4
			s1.797-4,4-4c2.203,0,4,1.797,4,4S258.175,277.97,255.971,277.97z"/>
	</g>
</g>
<g>
	<g>
		<path d="M355.959,97.994c-6.616,0-11.998,5.382-11.998,11.998c0,6.617,5.382,11.999,11.998,11.999
			c6.617,0,11.999-5.382,11.999-11.999C367.958,103.376,362.576,97.994,355.959,97.994z M355.959,113.992
			c-2.203,0-3.999-1.793-3.999-4c0-2.207,1.796-3.999,3.999-3.999s4,1.792,4,3.999C359.959,112.199,358.162,113.992,355.959,113.992
			z"/>
	</g>
</g>
<g>
	<g>
		<path d="M363.958,57.998c-2.21,0-3.999,1.789-3.999,4v47.994c0,2.211,1.789,4,3.999,4c2.211,0,4-1.789,4-4V61.998
			C367.958,59.787,366.169,57.998,363.958,57.998z"/>
	</g>
</g>
<g>
	<g>
		<path d="M403.954,89.995c-6.616,0-11.999,5.382-11.999,11.998c0,6.617,5.383,11.999,11.999,11.999
			c6.617,0,11.998-5.382,11.998-11.999C415.952,95.377,410.57,89.995,403.954,89.995z M403.954,105.993c-2.203,0-4-1.793-4-4
			c0-2.207,1.797-3.999,4-3.999s3.999,1.792,3.999,3.999C407.953,104.2,406.156,105.993,403.954,105.993z"/>
	</g>
</g>
<g>
	<g>
		<path d="M411.953,49.999c-2.211,0-4,1.789-4,4v47.994c0,2.211,1.789,4,4,4s3.999-1.789,3.999-4V53.999
			C415.952,51.788,414.164,49.999,411.953,49.999z"/>
	</g>
</g>
<g>
	<g>
		<path d="M415.897,53.343c-0.368-2.184-2.484-3.68-4.601-3.289l-47.994,7.999c-2.18,0.363-3.656,2.421-3.289,4.601
			c0.329,1.957,2.024,3.343,3.937,3.343c0.219,0,0.446-0.015,0.664-0.054l47.995-7.999
			C414.789,57.581,416.264,55.523,415.897,53.343z"/>
	</g>
</g>
<g>
	<g>
		<path d="M415.897,69.341c-0.368-2.184-2.484-3.684-4.601-3.289l-47.994,7.999c-2.18,0.363-3.656,2.421-3.289,4.601
			c0.329,1.957,2.024,3.344,3.937,3.344c0.219,0,0.446-0.016,0.664-0.054l47.995-8C414.789,73.579,416.264,71.521,415.897,69.341z"
			/>
	</g>
</g>
<g>
	<g>
		<path d="M439.95,145.988c-8.818,0-15.998,7.174-15.998,15.998s7.18,15.999,15.998,15.999c8.82,0,15.998-7.176,15.998-15.999
			S448.77,145.988,439.95,145.988z M439.95,169.985c-4.413,0-7.998-3.589-7.998-7.999c0-4.409,3.585-7.999,7.998-7.999
			c4.414,0,8,3.59,8,7.999C447.95,166.396,444.364,169.985,439.95,169.985z"/>
	</g>
</g>
<g>
	<g>
		<path d="M451.949,113.991c-2.211,0-3.999,1.79-3.999,4v43.995c0,2.211,1.788,4,3.999,4c2.21,0,3.999-1.789,3.999-4v-43.995
			C455.948,115.78,454.16,113.991,451.949,113.991z"/>
	</g>
</g>
<g>
	<g>
		<path d="M471.477,116.11c-1.055-1.961-3.476-2.68-5.413-1.645c-7.046,3.761-9.984,2.526-10.562,1.691
			c-0.968-1.879-3.249-2.692-5.21-1.805c-2.006,0.914-2.897,3.285-1.983,5.296c0.25,0.559,1.725,3.422,5.655,4.754
			c1.274,0.429,2.64,0.648,4.101,0.648c3.429,0,7.367-1.179,11.764-3.53C471.782,120.48,472.515,118.059,471.477,116.11z"/>
	</g>
</g>
<g>
</g>
<g>
</g>
<g>
</g>
<g>
</g>
<g>
</g>
<g>
</g>
<g>
</g>
<g>
</g>
<g>
</g>
<g>
</g>
<g>
</g>
<g>
</g>
<g>
</g>
<g>
</g>
<g>
</g>
</svg>
