<?xml version="1.0" encoding="iso-8859-1"?>
<!-- Generator: Adobe Illustrator 19.0.0, SVG Export Plug-In . SVG Version: 6.00 Build 0)  -->
<svg version="1.1" id="Capa_1" xmlns="http://www.w3.org/2000/svg" xmlns:xlink="http://www.w3.org/1999/xlink" x="0px" y="0px"
	 viewBox="0 0 369.88 369.88" style="enable-background:new 0 0 369.88 369.88;" xml:space="preserve">
<g>
	<g>
		<path d="M347.38,77.287H22.5C10.093,77.287,0,87.38,0,99.787v170.307c0,12.406,10.093,22.5,22.5,22.5h324.88
			c12.407,0,22.5-10.094,22.5-22.5V99.787C369.88,87.38,359.787,77.287,347.38,77.287z M352.88,270.092c0,3.033-2.467,5.5-5.5,5.5
			H22.5c-3.033,0-5.5-2.467-5.5-5.5V99.787c0-3.033,2.467-5.5,5.5-5.5h324.88c3.033,0,5.5,2.467,5.5,5.5V270.092z"/>
		<path d="M42.478,137.132v95.616h131.127v-95.616H42.478z M59.478,154.132h40.064v61.616H59.478V154.132z M156.605,215.749h-40.063
			v-61.616h40.063V215.749z"/>
		<path d="M196.274,232.749h131.127v-95.616H196.274V232.749z M213.274,154.132h97.127v61.616h-97.127V154.132z"/>
		<rect x="235.339" y="175.94" width="17" height="18"/>
		<rect x="271.337" y="175.94" width="17" height="18"/>
	</g>
	<g>
	</g>
	<g>
	</g>
	<g>
	</g>
	<g>
	</g>
	<g>
	</g>
	<g>
	</g>
	<g>
	</g>
	<g>
	</g>
	<g>
	</g>
	<g>
	</g>
	<g>
	</g>
	<g>
	</g>
	<g>
	</g>
	<g>
	</g>
	<g>
	</g>
</g>
<g>
</g>
<g>
</g>
<g>
</g>
<g>
</g>
<g>
</g>
<g>
</g>
<g>
</g>
<g>
</g>
<g>
</g>
<g>
</g>
<g>
</g>
<g>
</g>
<g>
</g>
<g>
</g>
<g>
</g>
</svg>
