<svg id="Layer_1" enable-background="new 0 0 512 512" height="512" viewBox="0 0 512 512" width="512" xmlns="http://www.w3.org/2000/svg"><path d="m429.92 28.988v15h67.08v285.81h-425.25v15h425.25v92.81h-482v-92.81h41.75v-15h-41.75v-285.81h399.92v-15h-414.92v423.619h35.5v30.405h85.5v-30.405h267.002v30.405h85.5v-30.405h38.498v-423.619zm-323.92 439.024h-55.5v-15.403h55.5zm352.502 0h-55.5v-15.403h55.5z"/><path d="m156.181 391.203c0-15.163-12.336-27.5-27.5-27.5s-27.5 12.337-27.5 27.5 12.336 27.5 27.5 27.5 27.5-12.337 27.5-27.5zm-40 0c0-6.893 5.607-12.5 12.5-12.5s12.5 5.607 12.5 12.5-5.607 12.5-12.5 12.5-12.5-5.608-12.5-12.5z"/><path d="m241.06 391.203c0-15.163-12.336-27.5-27.5-27.5s-27.5 12.337-27.5 27.5 12.336 27.5 27.5 27.5 27.5-12.337 27.5-27.5zm-40 0c0-6.893 5.607-12.5 12.5-12.5s12.5 5.607 12.5 12.5-5.607 12.5-12.5 12.5-12.5-5.608-12.5-12.5z"/><path d="m325.94 391.203c0-15.163-12.336-27.5-27.5-27.5s-27.5 12.337-27.5 27.5 12.336 27.5 27.5 27.5 27.5-12.337 27.5-27.5zm-40 0c0-6.893 5.607-12.5 12.5-12.5s12.5 5.607 12.5 12.5-5.607 12.5-12.5 12.5-12.5-5.608-12.5-12.5z"/><path d="m410.819 391.203c0-15.163-12.336-27.5-27.5-27.5s-27.5 12.337-27.5 27.5 12.336 27.5 27.5 27.5 27.5-12.337 27.5-27.5zm-40 0c0-6.893 5.607-12.5 12.5-12.5s12.5 5.607 12.5 12.5-5.607 12.5-12.5 12.5-12.5-5.608-12.5-12.5z"/><path d="m269.5 308.797v-215h-233v215zm-148.744-15c3.407-14.65 16.571-25.601 32.244-25.601s28.836 10.95 32.244 25.601zm-69.256-185h203v185h-53.988c-3.093-19.67-18.15-35.415-37.464-39.537l24.351-70.872-14.186-4.875-25.774 75.015c-21.436 2.48-38.623 19.1-41.952 40.269h-53.987z"/><path d="m407.5 312.297v-115.433h14.915v-58.066h-14.915v-44.5h-15v44.5h-15.142v58.066h15.142v115.434h15zm-15.142-158.5h15.057v28.066h-15.057z"/><path d="m444.74 312.297h15v-34.1h15.028v-58.067h-15.028v-125.833h-15v125.833h-15.029v58.067h15.029zm-.029-77.167h15.057v28.067h-15.057z"/><path d="m352.033 93.797h-58.066v58.066h58.066zm-15 43.067h-28.066v-28.066h28.066z"/><path d="m352.033 173.797h-58.066v58.066h58.066zm-15 43.067h-28.066v-28.066h28.066z"/><path d="m293.967 308.797h58.066v-58.066h-58.066zm15-43.066h28.066v28.066h-28.066z"/><path d="m229.812 171.494 8.875-12.094c-50.499-37.06-119.868-37.8-171.375 0l8.875 12.094c45.266-33.221 107.456-33.884 153.625 0z"/><path d="m268.154 73.987c-55.712-.142-114.224-.176-170.647-.11l-.018-15c56.395-.066 114.924-.032 170.703.11zm-230.635 0-.038-15 15.003-.034.029 15zm29.993-.066-.026-15 15.001-.025.023 15z"/></svg>