<?xml version="1.0" encoding="iso-8859-1"?>
<!-- Generator: Adobe Illustrator 19.0.0, SVG Export Plug-In . SVG Version: 6.00 Build 0)  -->
<svg version="1.1" id="Capa_1" xmlns="http://www.w3.org/2000/svg" xmlns:xlink="http://www.w3.org/1999/xlink" x="0px" y="0px"
	 viewBox="0 0 512 512" style="enable-background:new 0 0 512 512;" xml:space="preserve">
<g>
	<g>
		<path d="M301,100.727V45c0-24.813-20.187-45-45-45s-45,20.187-45,45v15h-45c-8.284,0-15,6.716-15,15s6.716,15,15,15h45v10.727
			C141.906,133.976,91,241.164,91,317c0,62.799,35.577,119.864,91.344,147.687C188.187,491.857,212.363,512,241,512h30
			c28.637,0,52.813-20.143,58.656-47.313C385.423,436.864,421,379.799,421,317C421,241.252,370.181,134.018,301,100.727z M241,45
			c0-8.271,6.729-15,15-15s15,6.729,15,15v46.197C266.019,90.413,261.015,90,256,90s-10.019,0.413-15,1.197V45z M309.931,440.801
			c-5.19,2.265-8.663,7.259-8.979,12.913C300.066,469.575,286.91,482,271,482h-30c-15.91,0-29.066-12.425-29.952-28.286
			c-0.315-5.654-3.788-10.648-8.979-12.913C152.821,419.315,121,370.72,121,317c0-75.304,62.124-197,135-197
			c73.345,0,135,122.427,135,197C391,370.72,359.179,419.315,309.931,440.801z"/>
	</g>
</g>
<g>
	<g>
		<path d="M256,150c-61.924,0-105,112.577-105,167c0,28.778,11.52,49.584,34.238,61.841C201.879,387.819,224.363,392,256,392
			c31.637,0,54.121-4.181,70.762-13.159C349.48,366.584,361,345.778,361,317C361,262.158,317.74,150,256,150z M256,362
			c-62.246,0-75-17.989-75-45c0-46.021,38.281-137,75-137c36.944,0,75,91.365,75,137C331,344.011,318.246,362,256,362z"/>
	</g>
</g>
<g>
</g>
<g>
</g>
<g>
</g>
<g>
</g>
<g>
</g>
<g>
</g>
<g>
</g>
<g>
</g>
<g>
</g>
<g>
</g>
<g>
</g>
<g>
</g>
<g>
</g>
<g>
</g>
<g>
</g>
</svg>
