<?xml version="1.0" encoding="iso-8859-1"?>
<!-- Generator: Adobe Illustrator 19.0.0, SVG Export Plug-In . SVG Version: 6.00 Build 0)  -->
<svg version="1.1" id="Capa_1" xmlns="http://www.w3.org/2000/svg" xmlns:xlink="http://www.w3.org/1999/xlink" x="0px" y="0px"
	 viewBox="0 0 512 512" style="enable-background:new 0 0 512 512;" xml:space="preserve">
<g>
	<g>
		<path d="M506.254,33.195c-3.627-2.844-8.359-3.861-12.836-2.761L390,55.865V45c0-24.813-20.187-45-45-45H45
			C20.187,0,0,20.187,0,45c0,26.983,0,429.844,0,452c0,8.284,6.716,15,15,15s15-6.716,15-15v-15h330v15c0,8.284,6.716,15,15,15
			s15-6.716,15-15c0-10.133,0-60.713,0-70.865l103.418,25.431c4.439,1.091,9.177,0.108,12.836-2.761
			C509.881,445.962,512,441.609,512,437V45C512,40.391,509.881,36.038,506.254,33.195z M180,452H30v-30h150V452z M180,392H30V90h150
			V392z M360,452H210v-30h150V452z M360,392H210V150h30v15c0,8.284,6.716,15,15,15s15-6.716,15-15v-15h30v15c0,8.284,6.716,15,15,15
			s15-6.716,15-15v-15h30V392z M360,120H210V90h150V120z M360,60c-18.326,0-311.674,0-330,0V45c0-8.271,6.729-15,15-15h300
			c8.271,0,15,6.729,15,15V60z M482,417.865l-92-22.623V86.758l92-22.623V417.865z"/>
	</g>
</g>
<g>
	<g>
		<path d="M135,210c-8.284,0-15,6.716-15,15v30c0,8.284,6.716,15,15,15s15-6.716,15-15v-30C150,216.716,143.284,210,135,210z"/>
	</g>
</g>
<g>
</g>
<g>
</g>
<g>
</g>
<g>
</g>
<g>
</g>
<g>
</g>
<g>
</g>
<g>
</g>
<g>
</g>
<g>
</g>
<g>
</g>
<g>
</g>
<g>
</g>
<g>
</g>
<g>
</g>
</svg>
