<svg id="Layer_3" enable-background="new 0 0 64 64" height="512" viewBox="0 0 64 64" width="512" xmlns="http://www.w3.org/2000/svg"><g><path d="m62 15h-15.586l-9.461-9.461c-.236-2.538-2.354-4.539-4.953-4.539s-4.717 2.001-4.953 4.539l-9.461 9.461h-15.586c-.552 0-1 .448-1 1v46c0 .552.448 1 1 1h60c.552 0 1-.448 1-1v-46c0-.552-.448-1-1-1zm-55 30h50v2.19c-1.175-.342-2.522-.082-3.414.81l-.586.586c-.526.526-1.474.526-2 0l-.586-.586c-1.289-1.29-3.539-1.29-4.828 0l-.586.586c-.526.526-1.474.526-2 0l-.586-.586c-1.289-1.29-3.539-1.29-4.828 0l-.586.586c-.526.526-1.474.526-2 0l-.586-.586c-1.289-1.29-3.539-1.29-4.828 0l-.586.586c-.526.526-1.474.526-2 0l-.586-.586c-1.289-1.29-3.539-1.29-4.828 0l-.586.586c-.526.526-1.474.526-2 0l-.586-.586c-1.289-1.29-3.539-1.29-4.828 0l-.586.586c-.526.526-1.474.526-2 0l-.586-.586c-.892-.892-2.239-1.152-3.414-.81zm38-2v-2h2v2zm-2-2v2h-4v-2zm4-2h-12v-4h12zm-12 2h2v2h-2zm-28 8.414c.526-.526 1.474-.526 2 0l.586.586c1.289 1.29 3.539 1.29 4.828 0l.586-.586c.526-.526 1.474-.526 2 0l.586.586c1.289 1.29 3.539 1.29 4.828 0l.586-.586c.526-.526 1.474-.526 2 0l.586.586c1.289 1.29 3.539 1.29 4.828 0l.586-.586c.526-.526 1.474-.526 2 0l.586.586c1.289 1.29 3.539 1.29 4.828 0l.586-.586c.526-.526 1.474-.526 2 0l.586.586c1.289 1.29 3.539 1.29 4.828 0l.586-.586c.526-.526 1.474-.526 2 0l.586.586c.645.645 1.502 1 2.414 1s1.77-.355 2.414-1l.586-.586c.526-.526 1.474-.526 2 0v1.776c-1.175-.342-2.522-.082-3.414.81l-.586.586c-.526.526-1.474.526-2 0l-.586-.586c-1.289-1.29-3.539-1.29-4.828 0l-.586.586c-.526.526-1.474.526-2 0l-.586-.586c-1.289-1.29-3.539-1.29-4.828 0l-.586.586c-.526.526-1.474.526-2 0l-.586-.586c-1.289-1.29-3.539-1.29-4.828 0l-.586.586c-.526.526-1.474.526-2 0l-.586-.586c-1.289-1.29-3.539-1.29-4.828 0l-.586.586c-.526.526-1.474.526-2 0l-.586-.586c-1.289-1.29-3.539-1.29-4.828 0l-.586.586c-.526.526-1.474.526-2 0l-.586-.586c-.892-.892-2.239-1.152-3.414-.81zm50-6.414h-8v-9c0-.552-.448-1-1-1h-14c-.552 0-1 .448-1 1v9h-6v-7h3c.326 0 .632-.159.819-.426.188-.267.232-.609.121-.916l-4-11c-.144-.395-.52-.658-.94-.658s-.796.263-.94.658l-4 11c-.111.307-.066.648.121.916.187.267.493.426.819.426h3v7h-10v-7h3c.326 0 .632-.159.819-.426.188-.267.232-.609.121-.916l-4-11c-.144-.395-.52-.658-.94-.658s-.796.263-.94.658l-4 11c-.111.307-.066.648.121.916.187.267.493.426.819.426h3v7h-6v-22h50zm-33.572-9 2.572-7.074 2.572 7.074zm-12 0 2.572-7.074 2.572 7.074zm-4.428 19.414c.526-.526 1.474-.526 2 0l.586.586c1.289 1.29 3.539 1.29 4.828 0l.586-.586c.526-.526 1.474-.526 2 0l.586.586c1.289 1.29 3.539 1.29 4.828 0l.586-.586c.526-.526 1.474-.526 2 0l.586.586c1.289 1.29 3.539 1.29 4.828 0l.586-.586c.526-.526 1.474-.526 2 0l.586.586c1.289 1.29 3.539 1.29 4.828 0l.586-.586c.526-.526 1.474-.526 2 0l.586.586c1.289 1.29 3.539 1.29 4.828 0l.586-.586c.526-.526 1.474-.526 2 0l.586.586c.645.645 1.502 1 2.414 1s1.77-.355 2.414-1l.586-.586c.526-.526 1.474-.526 2 0v3.586h-50zm50.586-34.414h-51.172l-2-2h55.172zm-52.586 1.414v37.172l-2 2v-41.172zm1.414 38.586h51.172l2 2h-55.172zm52.586-1.414v-37.172l2-2v41.172zm-27-54.586c1.654 0 3 1.346 3 3s-1.346 3-3 3-3-1.346-3-3 1.346-3 3-3zm-4.58 4.994c.773 1.766 2.532 3.006 4.58 3.006s3.807-1.24 4.58-3.006l7.006 7.006h-23.172z"/><path d="m44 31h8c1.654 0 3-1.346 3-3s-1.346-3-3-3c-.173 0-.345.015-.513.044-.691-1.242-2.004-2.044-3.487-2.044s-2.796.802-3.487 2.044c-.168-.029-.34-.044-.513-.044-1.654 0-3 1.346-3 3s1.346 3 3 3zm0-4c.189 0 .376.056.54.162.273.178.616.21.918.088s.526-.384.6-.702c.211-.911 1.01-1.548 1.942-1.548s1.731.637 1.942 1.548c.074.318.297.58.6.702s.646.089.918-.088c.164-.106.351-.162.54-.162.551 0 1 .449 1 1s-.449 1-1 1h-8c-.551 0-1-.449-1-1s.449-1 1-1z"/></g></svg>