<svg id="Layer_1" enable-background="new 0 0 512 512" height="512" viewBox="0 0 512 512" width="512" xmlns="http://www.w3.org/2000/svg"><g><path d="m421.082 355.479c-16.269-24.198-32.288-43.872-32.962-44.698-2.849-3.49-7.115-5.514-11.62-5.514s-8.771 2.024-11.62 5.514c-.674.826-16.693 20.5-32.962 44.698-34.685 51.594-34.685 70.908-34.685 77.255 0 43.708 35.559 79.267 79.267 79.267s79.267-35.559 79.267-79.267c0-6.347 0-25.662-34.685-77.255zm-44.582 126.521c-27.166 0-49.267-22.101-49.267-49.267 0-10.315 11.013-32.871 29.46-60.336 7.043-10.485 14.142-20.208 19.807-27.714 5.665 7.506 12.764 17.229 19.807 27.714 18.447 27.465 29.46 50.021 29.46 60.336 0 27.166-22.101 49.267-49.267 49.267z"/><path d="m329.366 256c0 8.284 6.716 15 15 15h64.268c8.284 0 15-6.716 15-15v-32.133c0-43.708-35.56-79.267-79.268-79.267h-97.466v-1.067c0-8.284-6.716-15-15-15h-1.067v-34.266h65.334c8.284 0 15-6.716 15-15v-64.267c0-8.284-6.716-15-15-15h-224.934c-8.284 0-15 6.716-15 15v64.267c0 8.284 6.716 15 15 15h65.333v34.267h-1.066c-8.284 0-15 6.716-15 15v1.067h-49.267c-8.284 0-15 6.716-15 15v64.267c0 8.284 6.716 15 15 15h49.267v1.066c0 8.284 6.716 15 15 15h96.4c8.284 0 15-6.716 15-15v-1.066h82.466zm-208.866-47.133h-34.267v-34.267h34.267zm-34.267-144.6v-34.267h194.934v34.267zm114.6 30v34.267h-34.267v-34.267zm16.067 130.666h-66.4v-66.4h66.4zm30-16.066v-34.267h97.466c27.166 0 49.268 22.101 49.268 49.267v17.133h-34.268v-17.133c0-8.284-6.716-15-15-15z"/></g></svg>