<svg id="Layer_1" enable-background="new 0 0 256 256" height="512" viewBox="0 0 256 256" width="512" xmlns="http://www.w3.org/2000/svg"><g><g><g><g><path d="m124.15 156.206h114.97v64.199h-114.97z" fill="#f8af23"/></g></g><g><g><path d="m124.15 156.205h8.03v64.2h-8.03z" fill="#f87023"/></g></g><g><g><path d="m231.09 156.205h8.03v64.2h-8.03z" fill="#f8d323"/></g></g><g><g><path d="m15.89 167.578h96.115v52.827h-96.115z" fill="#f46275"/></g></g><g><g><path d="m15.89 167.575h8.03v52.83h-8.03z" fill="#f43075"/></g></g><g><g><path d="m103.975 167.575h8.03v52.83h-8.03z" fill="#f48875"/></g></g><g><g><path d="m238.85 131.462c0 6.434-5.264 11.698-11.698 11.698h-91.304c-6.434 0-11.698-5.264-11.698-11.698v-54.18c0-6.434 5.264-11.698 11.698-11.698h91.304c6.434 0 11.698 5.264 11.698 11.698z" fill="#f8af23"/></g></g><g><g><path d="m143.87 143.155h-8.03c-6.43 0-11.69-5.26-11.69-11.69v-54.18c0-6.44 5.26-11.7 11.69-11.7h8.03c-6.43 0-11.69 5.26-11.69 11.7v54.18c0 6.43 5.26 11.69 11.69 11.69z" fill="#f87023"/></g></g><g><g><path d="m219.13 65.589h8.03c6.43 0 11.69 5.26 11.69 11.69v54.18c0 6.44-5.26 11.7-11.69 11.7h-8.03c6.43 0 11.69-5.26 11.69-11.7v-54.18c0-6.43-5.26-11.69-11.69-11.69z" fill="#f8d323"/></g></g><g><g><path d="m127.692 139.811c2.112 2.064 4.988 3.349 8.156 3.349h91.304c3.168 0 6.044-1.286 8.156-3.349l-53.808-50.886z" fill="#f46275"/></g></g><g><g><path d="m235.308 68.933c-2.112-2.064-4.988-3.349-8.156-3.349h-91.304c-3.168 0-6.044 1.285-8.156 3.349l53.808 50.885z" fill="#63bce7"/></g></g><g><g><path d="m15.89 23.405h96.115v132.801h-96.115z" fill="#63bce7"/></g></g><g><g><path d="m15.89 23.405h8.03v132.8h-8.03z" fill="#6377e7"/></g></g><g><g><path d="m103.975 23.405h8.03v132.8h-8.03z" fill="#63e2e7"/></g></g><g><g><path d="m40.15 33.677 14.355 18.343h-28.71z" fill="#f46275"/></g></g><g><g><path d="m40.15 175.649 14.355 18.343h-28.71z" fill="#63bce7"/></g></g><g><g><path d="m147.845 166.478 14.355 18.343h-28.71z" fill="#f46275"/></g></g><g><g><path d="m225.223 208.905c0 1.1-.9 2-2 2h-32.333c-1.1 0-2-.9-2-2v-11.333c0-1.1.9-2 2-2h32.333c1.1 0 2 .9 2 2z" fill="#f46275"/></g></g></g><g><g><g><path d="m136.574 28.375h83.864v24.849h-83.864z" fill="#f8af23"/></g></g><g><g><path d="m136.574 53.223c-6.862 0-12.424-5.563-12.424-12.424s5.563-12.424 12.424-12.424z" fill="#f46275"/></g></g><g><g><path d="m220.439 28.375 19.671 12.424-19.671 12.424z" fill="#f46275"/></g></g></g><g><g><g><path d="m113.505 220.405v-52.827c0-.829-.671-1.5-1.5-1.5h-96.115c-.829 0-1.5.671-1.5 1.5v52.827c0 .829.671 1.5 1.5 1.5h96.115c.828 0 1.5-.671 1.5-1.5zm-3-1.5h-93.115v-49.827h93.115z" fill="#231f20"/></g></g><g><g><path d="m199.127 231.095h-148.726c-.829 0-1.5.671-1.5 1.5s.671 1.5 1.5 1.5h148.726c.829 0 1.5-.671 1.5-1.5s-.671-1.5-1.5-1.5z" fill="#231f20"/></g></g><g><g><path d="m41.391 231.095h-8.343c-.829 0-1.5.671-1.5 1.5s.671 1.5 1.5 1.5h8.343c.829 0 1.5-.671 1.5-1.5s-.672-1.5-1.5-1.5z" fill="#231f20"/></g></g><g><g><path d="m216.686 231.095h-8.346c-.829 0-1.5.671-1.5 1.5s.671 1.5 1.5 1.5h8.346c.829 0 1.5-.671 1.5-1.5s-.672-1.5-1.5-1.5z" fill="#231f20"/></g></g><g><g><path d="m15.89 157.706h96.115c.829 0 1.5-.671 1.5-1.5v-132.801c0-.829-.671-1.5-1.5-1.5h-96.115c-.829 0-1.5.671-1.5 1.5v132.801c0 .829.671 1.5 1.5 1.5zm1.5-132.801h93.115v129.801h-93.115z" fill="#231f20"/></g></g><g><g><path d="m101.825 61.067h-75.572c-.829 0-1.5.671-1.5 1.5s.671 1.5 1.5 1.5h75.572c.829 0 1.5-.671 1.5-1.5s-.672-1.5-1.5-1.5z" fill="#231f20"/></g></g><g><g><path d="m101.825 73.907h-75.572c-.829 0-1.5.671-1.5 1.5s.671 1.5 1.5 1.5h75.572c.829 0 1.5-.671 1.5-1.5s-.672-1.5-1.5-1.5z" fill="#231f20"/></g></g><g><g><path d="m101.825 86.747h-75.572c-.829 0-1.5.671-1.5 1.5s.671 1.5 1.5 1.5h75.572c.829 0 1.5-.671 1.5-1.5s-.672-1.5-1.5-1.5z" fill="#231f20"/></g></g><g><g><path d="m101.825 99.586h-75.572c-.829 0-1.5.671-1.5 1.5s.671 1.5 1.5 1.5h75.572c.829 0 1.5-.671 1.5-1.5s-.672-1.5-1.5-1.5z" fill="#231f20"/></g></g><g><g><path d="m101.825 112.426h-75.572c-.829 0-1.5.671-1.5 1.5s.671 1.5 1.5 1.5h75.572c.829 0 1.5-.671 1.5-1.5s-.672-1.5-1.5-1.5z" fill="#231f20"/></g></g><g><g><path d="m101.825 125.266h-75.572c-.829 0-1.5.671-1.5 1.5s.671 1.5 1.5 1.5h75.572c.829 0 1.5-.671 1.5-1.5s-.672-1.5-1.5-1.5z" fill="#231f20"/></g></g><g><g><path d="m239.12 154.706h-114.97c-.829 0-1.5.671-1.5 1.5v64.199c0 .829.671 1.5 1.5 1.5h114.97c.829 0 1.5-.671 1.5-1.5v-64.199c0-.829-.672-1.5-1.5-1.5zm-1.5 64.199h-111.97v-61.199h111.97z" fill="#231f20"/></g></g><g><g><path d="m54.505 53.52c.574 0 1.097-.327 1.349-.843.251-.516.186-1.13-.167-1.582l-14.356-18.342c-.568-.727-1.794-.727-2.362 0l-14.356 18.342c-.354.452-.418 1.065-.167 1.582.251.516.775.843 1.349.843zm-14.355-17.409 11.276 14.409h-22.553z" fill="#231f20"/></g></g><g><g><path d="m25.794 195.492h28.71c.574 0 1.097-.327 1.349-.843.251-.516.186-1.13-.167-1.582l-14.355-18.342c-.568-.727-1.794-.727-2.362 0l-14.355 18.342c-.354.452-.418 1.065-.167 1.582.25.516.774.843 1.347.843zm14.356-17.409 11.276 14.409h-22.553z" fill="#231f20"/></g></g><g><g><path d="m133.49 186.32h28.71c.574 0 1.097-.327 1.349-.843.251-.516.186-1.13-.167-1.582l-14.355-18.342c-.568-.727-1.794-.727-2.362 0l-14.355 18.342c-.354.452-.418 1.065-.167 1.582.25.516.774.843 1.347.843zm14.355-17.408 11.276 14.409h-22.553z" fill="#231f20"/></g></g><g><g><path d="m223.223 194.072h-32.333c-1.93 0-3.5 1.57-3.5 3.5v11.333c0 1.93 1.57 3.5 3.5 3.5h32.333c1.93 0 3.5-1.57 3.5-3.5v-11.333c0-1.93-1.571-3.5-3.5-3.5zm.5 14.833c0 .271-.229.5-.5.5h-32.333c-.271 0-.5-.229-.5-.5v-11.333c0-.271.229-.5.5-.5h32.333c.271 0 .5.229.5.5z" fill="#231f20"/></g></g><g><g><path d="m64.039 182.652h37.786c.829 0 1.5-.671 1.5-1.5s-.671-1.5-1.5-1.5h-37.786c-.829 0-1.5.671-1.5 1.5s.671 1.5 1.5 1.5z" fill="#231f20"/></g></g><g><g><path d="m64.039 195.492h37.786c.829 0 1.5-.671 1.5-1.5s-.671-1.5-1.5-1.5h-37.786c-.829 0-1.5.671-1.5 1.5s.671 1.5 1.5 1.5z" fill="#231f20"/></g></g><g><g><path d="m64.039 208.332h37.786c.829 0 1.5-.671 1.5-1.5s-.671-1.5-1.5-1.5h-37.786c-.829 0-1.5.671-1.5 1.5s.671 1.5 1.5 1.5z" fill="#231f20"/></g></g><g><g><path d="m188.163 166.655h37.786c.829 0 1.5-.671 1.5-1.5s-.671-1.5-1.5-1.5h-37.786c-.829 0-1.5.671-1.5 1.5s.671 1.5 1.5 1.5z" fill="#231f20"/></g></g><g><g><path d="m188.163 179.495h37.786c.829 0 1.5-.671 1.5-1.5s-.671-1.5-1.5-1.5h-37.786c-.829 0-1.5.671-1.5 1.5s.671 1.5 1.5 1.5z" fill="#231f20"/></g></g><g><g><path d="m135.848 144.66h91.304c7.277 0 13.198-5.921 13.198-13.198v-54.18c0-7.277-5.921-13.198-13.198-13.198h-91.304c-7.277 0-13.198 5.921-13.198 13.198v54.18c0 7.277 5.921 13.198 13.198 13.198zm91.304-3h-91.304c-2.206 0-4.244-.711-5.914-1.906l35.232-33.318 15.303 14.472c.289.273.66.41 1.031.41s.742-.137 1.031-.41l15.303-14.472 35.232 33.318c-1.67 1.195-3.709 1.906-5.914 1.906zm10.198-64.378v54.18c0 2.336-.798 4.485-2.124 6.206l-35.209-33.296 35.209-33.296c1.326 1.721 2.124 3.87 2.124 6.206zm-101.502-10.199h91.304c2.205 0 4.244.711 5.914 1.906l-51.566 48.765-51.566-48.765c1.67-1.195 3.709-1.906 5.914-1.906zm-10.198 10.199c0-2.336.798-4.485 2.124-6.206l35.209 33.296-35.209 33.296c-1.326-1.721-2.124-3.87-2.124-6.206z" fill="#231f20"/></g></g><g><g><path d="m240.911 39.531-19.672-12.425v.004c-.232-.147-.505-.236-.801-.236h-83.864c-7.678 0-13.924 6.247-13.924 13.925s6.247 13.924 13.924 13.924h83.864c.295 0 .569-.088.801-.236v.004l19.672-12.424c.436-.274.699-.753.699-1.268s-.263-.993-.699-1.268zm-115.261 1.268c0-5.515 4.108-10.089 9.424-10.822v21.644c-5.316-.733-9.424-5.307-9.424-10.822zm93.288 10.925h-80.864v-21.849h80.864zm3-1.222v-19.406l15.363 9.703z" fill="#231f20"/></g></g><g><g><path d="m152.029 42.299h52.954c.829 0 1.5-.671 1.5-1.5s-.671-1.5-1.5-1.5h-52.954c-.829 0-1.5.671-1.5 1.5s.672 1.5 1.5 1.5z" fill="#231f20"/></g></g></g></g></svg>