<?xml version="1.0" encoding="iso-8859-1"?>
<!-- Generator: Adobe Illustrator 19.0.0, SVG Export Plug-In . SVG Version: 6.00 Build 0)  -->
<svg version="1.1" id="Capa_1" xmlns="http://www.w3.org/2000/svg" xmlns:xlink="http://www.w3.org/1999/xlink" x="0px" y="0px"
	 viewBox="0 0 511.999 511.999" style="enable-background:new 0 0 511.999 511.999;" xml:space="preserve">
<g>
	<g>
		<g>
			<polygon points="123.625,86.26 139.25,73.479 113.987,42.603 98.633,55.166 83.129,67.57 108.05,98.722 			"/>
			<polygon points="47.043,203.931 52.701,185.543 14.571,173.81 8.494,193.559 3.844,213.711 42.716,222.682 			"/>
			<polygon points="75.509,138.643 86.459,122.218 53.265,100.088 42.201,116.685 31.25,133.887 64.907,155.305 			"/>
			<polygon points="41.433,274.552 39.756,254.418 0,257.731 1.647,277.493 3.061,297.288 42.854,294.448 			"/>
			<polygon points="185.986,52.418 205.304,44.371 189.96,7.545 172.429,14.85 154.27,20.437 166.002,58.567 			"/>
			<polygon points="436.3,138.075 448.74,155.247 481.003,131.781 469.632,116.145 459.248,99.829 425.591,121.247 			"/>
			<polygon points="465.019,203.468 471.101,223.235 509.23,211.503 503.572,193.115 499.246,174.364 460.373,183.334 			"/>
			<polygon points="402.138,98.575 428.826,68.923 413.228,54.885 396.241,42.529 372.776,74.793 388.078,85.922 			"/>
			<polygon points="343.283,59.57 358.627,22.745 339.327,14.703 319.325,8.549 307.593,46.678 325.752,52.266 			"/>
			<polygon points="275.554,40.739 276.055,40.738 276.055,0.844 235.64,0.845 235.66,40.739 			"/>
			<polygon points="54.932,414.297 81.632,443.964 111.272,417.261 84.585,387.609 			"/>
			<polygon points="272.288,471.65 278.355,511.08 317.804,505.011 311.718,465.584 			"/>
			<polygon points="401.183,416.963 430.836,443.651 457.536,413.984 427.87,387.311 			"/>
			<polygon points="357.903,446.019 340.419,458.732 363.884,490.996 378.685,480.23 395.062,472.042 377.22,436.36 			"/>
			<polygon points="472.207,254.169 470.793,273.965 469.146,293.726 508.902,297.039 510.558,277.163 511.999,257.011 			"/>
			<polygon points="59.031,343.37 49.531,324.262 13.849,342.104 22.465,359.336 29.879,377.126 66.703,361.783 			"/>
			<polygon points="453.595,342.317 444.979,359.55 480.661,377.391 489.583,359.55 497.834,339.871 461.009,324.528 			"/>
			<polygon points="194.823,505.086 234.272,511.155 240.32,471.722 200.89,465.656 			"/>
			<polygon points="139.867,435.467 116.403,467.731 133.869,480.434 153.204,490.103 171.045,454.421 154.669,446.232 			"/>
			<path d="M256.089,181.364c-41.245,0-74.801,33.556-74.801,74.801s33.556,74.801,74.801,74.801s74.801-33.556,74.801-74.801
				S297.335,181.364,256.089,181.364z M256.089,291.073c-19.248,0-34.907-15.659-34.907-34.907s15.659-34.907,34.907-34.907
				c19.248,0,34.907,15.659,34.907,34.907C290.996,275.413,275.337,291.073,256.089,291.073z"/>
			<path d="M431.623,256.165c0-96.79-78.744-175.533-175.533-175.533S80.556,159.376,80.556,256.165S159.3,431.699,256.089,431.699
				S431.623,352.955,431.623,256.165z M256.089,391.805c-74.792,0-135.639-60.848-135.639-135.639
				c0-74.792,60.847-135.639,135.639-135.639s135.639,60.847,135.639,135.639C391.729,330.957,330.881,391.805,256.089,391.805z"/>
		</g>
	</g>
</g>
<g>
</g>
<g>
</g>
<g>
</g>
<g>
</g>
<g>
</g>
<g>
</g>
<g>
</g>
<g>
</g>
<g>
</g>
<g>
</g>
<g>
</g>
<g>
</g>
<g>
</g>
<g>
</g>
<g>
</g>
</svg>
